<?xml version="1.0" encoding="UTF-8"?>
<svg id="a" data-name="Layer 1" xmlns="http://www.w3.org/2000/svg" viewBox="0 0 48 48">
  <defs>
    <style>
      .f {
        fill: #fff;
      }

      .g {
        fill: #231f20;
      }

      .h {
        fill: #e61e1e;
      }

      .i {
        fill: #b4b4b4;
      }
    </style>
  </defs>
  <rect id="b" data-name="BOUNDARY" class="f" y="0" width="48" height="48"/>
  <g id="c" data-name="TUBE">
    <rect class="h" x="1" y="23" width="46" height="2"/>
  </g>
  <rect id="d" data-name="JOIST-L" class="i" y="0" width="2" height="48"/>
  <rect id="e" data-name="JOIST-R" class="i" x="46" y="0" width="2" height="48"/>
  <g>
    <path class="f" d="M39,17.38v13.24c0,1.31-1.09,2.38-2.43,2.38H11.43c-1.34,0-2.43-1.07-2.43-2.38v-13.24c0-1.31,1.09-2.38,2.43-2.38h25.13c1.34,0,2.43,1.07,2.43,2.38Z"/>
    <path class="g" d="M9,17.41v13.18c0,1.33,1.08,2.41,2.41,2.41h25.18c1.33,0,2.41-1.08,2.41-2.41v-13.18c0-1.33-1.08-2.41-2.41-2.41H11.41c-1.33,0-2.41,1.08-2.41,2.41ZM34.05,22.5v-4.5h1.95v4.5h-1.95ZM33.55,18v4.5h-1.95v-4.5h1.95ZM31.1,18v4.5h-1.95v-4.5h1.95ZM28.65,18v4.5h-1.95v-4.5h1.95ZM26.2,18v4.5h-1.95v-4.5h1.95ZM23.75,18v4.5h-1.95v-4.5h1.95ZM21.3,18v4.5h-1.95v-4.5h1.95ZM18.85,18v4.5h-1.95v-4.5h1.95ZM16.4,18v4.5h-1.95v-4.5h1.95ZM13.95,18v4.5h-1.95v-4.5h1.95ZM11.75,23h26.25v2H10v-2h1.75ZM13.95,25.5v4.5h-1.95v-4.5h1.95ZM14.45,30v-4.5h1.95v4.5h-1.95ZM16.9,30v-4.5h1.95v4.5h-1.95ZM19.35,30v-4.5h1.95v4.5h-1.95ZM21.8,30v-4.5h1.95v4.5h-1.95ZM24.25,30v-4.5h1.95v4.5h-1.95ZM26.7,30v-4.5h1.95v4.5h-1.95ZM29.15,30v-4.5h1.95v4.5h-1.95ZM31.6,30v-4.5h1.95v4.5h-1.95ZM34.05,30v-4.5h1.95v4.5h-1.95ZM36.59,32H11.41c-.78,0-1.41-.63-1.41-1.41v-5.09h1.5v4.75c0,.14.11.25.25.25h24.5c.14,0,.25-.11.25-.25v-4.75h1.5v5.09c0,.78-.63,1.41-1.41,1.41ZM36.59,16c.78,0,1.41.63,1.41,1.41v5.09h-1.5v-4.75c0-.14-.11-.25-.25-.25H11.75c-.14,0-.25.11-.25.25v4.75h-1.5v-5.09c0-.78.63-1.41,1.41-1.41h25.18Z"/>
  </g>
</svg>