<?xml version="1.0" encoding="UTF-8"?>
<svg id="a" data-name="Layer 1" xmlns="http://www.w3.org/2000/svg" viewBox="0 0 36 52">
  <defs>
    <style>
      .f {
        fill: #fff;
      }

      .g {
        fill: #231f20;
      }

      .h {
        fill: #e61e1e;
      }

      .i {
        fill: #b4b4b4;
      }
    </style>
  </defs>
  <rect id="b" data-name="BOUNDARY" class="f" width="36" height="52"/>
  <g id="c" data-name="TUBE">
    <rect class="h" x="1" y="25" width="34" height="2"/>
  </g>
  <rect id="d" data-name="JOIST-L" class="i" width="2" height="52"/>
  <rect id="e" data-name="JOIST-R" class="i" x="34" width="2" height="52"/>
  <g>
    <path class="f" d="M33,19.38v13.24c0,1.31-1.09,2.38-2.43,2.38H5.43c-1.34,0-2.43-1.07-2.43-2.38v-13.24c0-1.31,1.09-2.38,2.43-2.38h25.13c1.34,0,2.43,1.07,2.43,2.38Z"/>
    <path class="g" d="M3,19.41v13.18c0,1.33,1.08,2.41,2.41,2.41h25.18c1.33,0,2.41-1.08,2.41-2.41v-13.18c0-1.33-1.08-2.41-2.41-2.41H5.41c-1.33,0-2.41,1.08-2.41,2.41ZM28.05,24.5v-4.5h1.95v4.5h-1.95ZM27.55,20v4.5h-1.95v-4.5h1.95ZM25.1,20v4.5h-1.95v-4.5h1.95ZM22.65,20v4.5h-1.95v-4.5h1.95ZM20.2,20v4.5h-1.95v-4.5h1.95ZM17.75,20v4.5h-1.95v-4.5h1.95ZM15.3,20v4.5h-1.95v-4.5h1.95ZM12.85,20v4.5h-1.95v-4.5h1.95ZM10.4,20v4.5h-1.95v-4.5h1.95ZM7.95,20v4.5h-1.95v-4.5h1.95ZM5.75,25h26.25v2H4v-2h1.75ZM7.95,27.5v4.5h-1.95v-4.5h1.95ZM8.45,32v-4.5h1.95v4.5h-1.95ZM10.9,32v-4.5h1.95v4.5h-1.95ZM13.35,32v-4.5h1.95v4.5h-1.95ZM15.8,32v-4.5h1.95v4.5h-1.95ZM18.25,32v-4.5h1.95v4.5h-1.95ZM20.7,32v-4.5h1.95v4.5h-1.95ZM23.15,32v-4.5h1.95v4.5h-1.95ZM25.6,32v-4.5h1.95v4.5h-1.95ZM28.05,32v-4.5h1.95v4.5h-1.95ZM30.59,34H5.41c-.78,0-1.41-.63-1.41-1.41v-5.09h1.5v4.75c0,.14.11.25.25.25h24.5c.14,0,.25-.11.25-.25v-4.75h1.5v5.09c0,.78-.63,1.41-1.41,1.41ZM30.59,18c.78,0,1.41.63,1.41,1.41v5.09h-1.5v-4.75c0-.14-.11-.25-.25-.25H5.75c-.14,0-.25.11-.25.25v4.75h-1.5v-5.09c0-.78.63-1.41,1.41-1.41h25.18Z"/>
  </g>
</svg>