<?xml version="1.0" encoding="UTF-8"?>
<svg id="a" data-name="Layer 1" xmlns="http://www.w3.org/2000/svg" viewBox="0 0 36 52">
  <defs>
    <style>
      .f {
        fill: #fff;
      }

      .g {
        fill: #231f20;
      }

      .h {
        fill: #e61e1e;
      }

      .i {
        fill: #b4b4b4;
      }
    </style>
  </defs>
  <rect id="b" data-name="BOUNDARY" class="f" x="0" width="36" height="52"/>
  <rect id="c" data-name="JOIST-L" class="i" x="0" width="2" height="52"/>
  <rect id="d" data-name="JOIST-R" class="i" x="34" width="2" height="52"/>
  <g id="e" data-name="TUBE">
    <rect class="h" x="17" width="2" height="52"/>
  </g>
  <g>
    <path class="f" d="M24.62,41h-13.24c-1.31,0-2.38-1.09-2.38-2.43V13.43c0-1.34,1.07-2.43,2.38-2.43h13.24c1.31,0,2.38,1.09,2.38,2.43v25.13c0,1.34-1.07,2.43-2.38,2.43Z"/>
    <path class="g" d="M24.59,11h-13.18c-1.33,0-2.41,1.08-2.41,2.41v25.18c0,1.33,1.08,2.41,2.41,2.41h13.18c1.33,0,2.41-1.08,2.41-2.41V13.41c0-1.33-1.08-2.41-2.41-2.41ZM19.5,36.05h4.5v1.95h-4.5v-1.95ZM24,35.55h-4.5v-1.95h4.5v1.95ZM24,33.1h-4.5v-1.95h4.5v1.95ZM24,30.65h-4.5v-1.95h4.5v1.95ZM24,28.2h-4.5v-1.95h4.5v1.95ZM24,25.75h-4.5v-1.95h4.5v1.95ZM24,23.3h-4.5v-1.95h4.5v1.95ZM24,20.85h-4.5v-1.95h4.5v1.95ZM24,18.4h-4.5v-1.95h4.5v1.95ZM24,15.95h-4.5v-1.95h4.5v1.95ZM19,13.75v26.25h-2V12h2v1.75ZM16.5,15.95h-4.5v-1.95h4.5v1.95ZM12,16.45h4.5v1.95h-4.5v-1.95ZM12,18.9h4.5v1.95h-4.5v-1.95ZM12,21.35h4.5v1.95h-4.5v-1.95ZM12,23.8h4.5v1.95h-4.5v-1.95ZM12,26.25h4.5v1.95h-4.5v-1.95ZM12,28.7h4.5v1.95h-4.5v-1.95ZM12,31.15h4.5v1.95h-4.5v-1.95ZM12,33.6h4.5v1.95h-4.5v-1.95ZM12,36.05h4.5v1.95h-4.5v-1.95ZM10,38.59V13.41c0-.78.63-1.41,1.41-1.41h5.09v1.5h-4.75c-.14,0-.25.11-.25.25v24.5c0,.14.11.25.25.25h4.75v1.5h-5.09c-.78,0-1.41-.63-1.41-1.41ZM26,38.59c0,.78-.63,1.41-1.41,1.41h-5.09v-1.5h4.75c.14,0,.25-.11.25-.25V13.75c0-.14-.11-.25-.25-.25h-4.75v-1.5h5.09c.78,0,1.41.63,1.41,1.41v25.18Z"/>
  </g>
</svg>