<?xml version="1.0" encoding="UTF-8"?>
<svg id="a" data-name="Layer 1" xmlns="http://www.w3.org/2000/svg" viewBox="0 0 48 48">
  <defs>
    <style>
      .f {
        fill: #fff;
      }

      .g {
        fill: #231f20;
      }

      .h {
        fill: #e61e1e;
      }

      .i {
        fill: #b4b4b4;
      }
    </style>
  </defs>
  <rect id="b" data-name="BOUNDARY" class="f" y="0" width="48" height="48"/>
  <g id="c" data-name="TUBE">
    <rect class="h" x="23" width="2" height="48"/>
  </g>
  <rect id="d" data-name="JOIST-L" class="i" y="0" width="2" height="48"/>
  <rect id="e" data-name="JOIST-R" class="i" x="46" y="0" width="2" height="48"/>
  <g>
    <path class="f" d="M30.62,39.02h-13.24c-1.31,0-2.38-1.09-2.38-2.43V11.46c0-1.34,1.07-2.43,2.38-2.43h13.24c1.31,0,2.38,1.09,2.38,2.43v25.13c0,1.34-1.07,2.43-2.38,2.43Z"/>
    <path class="g" d="M30.59,9.02h-13.18c-1.33,0-2.41,1.08-2.41,2.41v25.18c0,1.33,1.08,2.41,2.41,2.41h13.18c1.33,0,2.41-1.08,2.41-2.41V11.44c0-1.33-1.08-2.41-2.41-2.41ZM25.5,34.07h4.5v1.95h-4.5v-1.95ZM30,33.57h-4.5v-1.95h4.5v1.95ZM30,31.12h-4.5v-1.95h4.5v1.95ZM30,28.67h-4.5v-1.95h4.5v1.95ZM30,26.22h-4.5v-1.95h4.5v1.95ZM30,23.77h-4.5v-1.95h4.5v1.95ZM30,21.32h-4.5v-1.95h4.5v1.95ZM30,18.87h-4.5v-1.95h4.5v1.95ZM30,16.42h-4.5v-1.95h4.5v1.95ZM30,13.97h-4.5v-1.95h4.5v1.95ZM25,11.77v26.25h-2V10.02h2v1.75ZM22.5,13.97h-4.5v-1.95h4.5v1.95ZM18,14.47h4.5v1.95h-4.5v-1.95ZM18,16.92h4.5v1.95h-4.5v-1.95ZM18,19.37h4.5v1.95h-4.5v-1.95ZM18,21.82h4.5v1.95h-4.5v-1.95ZM18,24.27h4.5v1.95h-4.5v-1.95ZM18,26.72h4.5v1.95h-4.5v-1.95ZM18,29.17h4.5v1.95h-4.5v-1.95ZM18,31.62h4.5v1.95h-4.5v-1.95ZM18,34.07h4.5v1.95h-4.5v-1.95ZM16,36.61V11.44c0-.78.63-1.41,1.41-1.41h5.09v1.5h-4.75c-.14,0-.25.11-.25.25v24.5c0,.14.11.25.25.25h4.75v1.5h-5.09c-.78,0-1.41-.63-1.41-1.41ZM32,36.61c0,.78-.63,1.41-1.41,1.41h-5.09v-1.5h4.75c.14,0,.25-.11.25-.25V11.77c0-.14-.11-.25-.25-.25h-4.75v-1.5h5.09c.78,0,1.41.63,1.41,1.41v25.18Z"/>
  </g>
</svg>