<?xml version="1.0" encoding="UTF-8"?>
<svg id="a" data-name="Layer 1" xmlns="http://www.w3.org/2000/svg" viewBox="0 0 48 40">
  <defs>
    <style>
      .f {
        fill: #fff;
      }

      .g {
        fill: #231f20;
      }

      .h {
        fill: #e61e1e;
      }

      .i {
        fill: #b4b4b4;
      }
    </style>
  </defs>
  <rect id="b" data-name="BOUNDARY" class="f" x="0" width="48" height="40"/>
  <g id="c" data-name="TUBE">
    <rect class="h" x="23" width="2" height="40"/>
  </g>
  <rect id="d" data-name="JOIST-R" class="i" x="46" width="2" height="40"/>
  <rect id="e" data-name="JOIST-L" class="i" x="0" width="2" height="40"/>
  <g>
    <path class="f" d="M30.62,34.9h-13.24c-1.31,0-2.38-1.09-2.38-2.43V7.34c0-1.34,1.07-2.43,2.38-2.43h13.24c1.31,0,2.38,1.09,2.38,2.43v25.13c0,1.34-1.07,2.43-2.38,2.43Z"/>
    <path class="g" d="M30.59,4.9h-13.18c-1.33,0-2.41,1.08-2.41,2.41v25.18c0,1.33,1.08,2.41,2.41,2.41h13.18c1.33,0,2.41-1.08,2.41-2.41V7.31c0-1.33-1.08-2.41-2.41-2.41ZM25.5,29.95h4.5v1.95h-4.5v-1.95ZM30,29.45h-4.5v-1.95h4.5v1.95ZM30,27h-4.5v-1.95h4.5v1.95ZM30,24.55h-4.5v-1.95h4.5v1.95ZM30,22.1h-4.5v-1.95h4.5v1.95ZM30,19.65h-4.5v-1.95h4.5v1.95ZM30,17.2h-4.5v-1.95h4.5v1.95ZM30,14.75h-4.5v-1.95h4.5v1.95ZM30,12.3h-4.5v-1.95h4.5v1.95ZM30,9.85h-4.5v-1.95h4.5v1.95ZM25,7.65v26.25h-2V5.9h2v1.75ZM22.5,9.85h-4.5v-1.95h4.5v1.95ZM18,10.35h4.5v1.95h-4.5v-1.95ZM18,12.8h4.5v1.95h-4.5v-1.95ZM18,15.25h4.5v1.95h-4.5v-1.95ZM18,17.7h4.5v1.95h-4.5v-1.95ZM18,20.15h4.5v1.95h-4.5v-1.95ZM18,22.6h4.5v1.95h-4.5v-1.95ZM18,25.05h4.5v1.95h-4.5v-1.95ZM18,27.5h4.5v1.95h-4.5v-1.95ZM18,29.95h4.5v1.95h-4.5v-1.95ZM16,32.49V7.31c0-.78.63-1.41,1.41-1.41h5.09v1.5h-4.75c-.14,0-.25.11-.25.25v24.5c0,.14.11.25.25.25h4.75v1.5h-5.09c-.78,0-1.41-.63-1.41-1.41ZM32,32.49c0,.78-.63,1.41-1.41,1.41h-5.09v-1.5h4.75c.14,0,.25-.11.25-.25V7.65c0-.14-.11-.25-.25-.25h-4.75v-1.5h5.09c.78,0,1.41.63,1.41,1.41v25.18Z"/>
  </g>
</svg>