<?xml version="1.0" encoding="UTF-8"?>
<svg id="a" data-name="Layer 1" xmlns="http://www.w3.org/2000/svg" viewBox="0 0 36 68">
  <defs>
    <style>
      .b {
        fill: #fff;
      }

      .c {
        fill: #231f20;
      }

      .d {
        fill: #bbbdbf;
      }

      .e {
        fill: #ec1c24;
      }
    </style>
  </defs>
  <rect class="b" width="36" height="68"/>
  <rect class="e" x="1" y="33" width="34" height="2"/>
  <rect class="d" width="2" height="68"/>
  <rect class="d" x="34" width="2" height="68"/>
  <g>
    <path class="b" d="M33,27.39v13.24c0,1.31-1.09,2.38-2.43,2.38H5.43c-1.34,0-2.43-1.07-2.43-2.38v-13.24c0-1.31,1.09-2.38,2.43-2.38h25.13c1.34,0,2.43,1.07,2.43,2.38Z"/>
    <path class="c" d="M3,27.42v13.18c0,1.33,1.08,2.41,2.41,2.41h25.18c1.33,0,2.41-1.08,2.41-2.41v-13.18c0-1.33-1.08-2.41-2.41-2.41H5.41c-1.33,0-2.41,1.08-2.41,2.41ZM28.05,32.51v-4.5h1.95v4.5h-1.95ZM27.55,28.01v4.5h-1.95v-4.5h1.95ZM25.1,28.01v4.5h-1.95v-4.5h1.95ZM22.65,28.01v4.5h-1.95v-4.5h1.95ZM20.2,28.01v4.5h-1.95v-4.5h1.95ZM17.75,28.01v4.5h-1.95v-4.5h1.95ZM15.3,28.01v4.5h-1.95v-4.5h1.95ZM12.85,28.01v4.5h-1.95v-4.5h1.95ZM10.4,28.01v4.5h-1.95v-4.5h1.95ZM7.95,28.01v4.5h-1.95v-4.5h1.95ZM5.75,33.01h26.25v2H4v-2h1.75ZM7.95,35.51v4.5h-1.95v-4.5h1.95ZM8.45,40.01v-4.5h1.95v4.5h-1.95ZM10.9,40.01v-4.5h1.95v4.5h-1.95ZM13.35,40.01v-4.5h1.95v4.5h-1.95ZM15.8,40.01v-4.5h1.95v4.5h-1.95ZM18.25,40.01v-4.5h1.95v4.5h-1.95ZM20.7,40.01v-4.5h1.95v4.5h-1.95ZM23.15,40.01v-4.5h1.95v4.5h-1.95ZM25.6,40.01v-4.5h1.95v4.5h-1.95ZM28.05,40.01v-4.5h1.95v4.5h-1.95ZM30.59,42.01H5.41c-.78,0-1.41-.63-1.41-1.41v-5.09h1.5v4.75c0,.14.11.25.25.25h24.5c.14,0,.25-.11.25-.25v-4.75h1.5v5.09c0,.78-.63,1.41-1.41,1.41ZM30.59,26.01c.78,0,1.41.63,1.41,1.41v5.09h-1.5v-4.75c0-.14-.11-.25-.25-.25H5.75c-.14,0-.25.11-.25.25v4.75h-1.5v-5.09c0-.78.63-1.41,1.41-1.41h25.18Z"/>
  </g>
</svg>