<?xml version="1.0" encoding="UTF-8"?>
<svg id="a" data-name="Layer 1" xmlns="http://www.w3.org/2000/svg" viewBox="0 0 58 44">
  <defs>
    <style>
      .e {
        fill: #fff;
      }

      .f {
        fill: #231f20;
      }

      .g {
        fill: #e61e1e;
      }

      .h {
        fill: #b4b4b4;
      }
    </style>
  </defs>
  <rect id="b" data-name="BOUNDARY" class="e" y="0" width="58" height="44"/>
  <rect class="g" x="28" width="2" height="44"/>
  <rect id="c" data-name="JOIST-L" class="h" y="0" width="2" height="44"/>
  <rect id="d" data-name="JOIST-R" class="h" x="56" y="0" width="2" height="44"/>
  <g>
    <path class="e" d="M35.62,37h-13.24c-1.31,0-2.38-1.09-2.38-2.43V9.43c0-1.34,1.07-2.43,2.38-2.43h13.24c1.31,0,2.38,1.09,2.38,2.43v25.13c0,1.34-1.07,2.43-2.38,2.43Z"/>
    <path class="f" d="M35.59,7h-13.18c-1.33,0-2.41,1.08-2.41,2.41v25.18c0,1.33,1.08,2.41,2.41,2.41h13.18c1.33,0,2.41-1.08,2.41-2.41V9.41c0-1.33-1.08-2.41-2.41-2.41ZM30.5,32.05h4.5v1.95h-4.5v-1.95ZM35,31.55h-4.5v-1.95h4.5v1.95ZM35,29.1h-4.5v-1.95h4.5v1.95ZM35,26.65h-4.5v-1.95h4.5v1.95ZM35,24.2h-4.5v-1.95h4.5v1.95ZM35,21.75h-4.5v-1.95h4.5v1.95ZM35,19.3h-4.5v-1.95h4.5v1.95ZM35,16.85h-4.5v-1.95h4.5v1.95ZM35,14.4h-4.5v-1.95h4.5v1.95ZM35,11.95h-4.5v-1.95h4.5v1.95ZM30,9.75v26.25h-2V8h2v1.75ZM27.5,11.95h-4.5v-1.95h4.5v1.95ZM23,12.45h4.5v1.95h-4.5v-1.95ZM23,14.9h4.5v1.95h-4.5v-1.95ZM23,17.35h4.5v1.95h-4.5v-1.95ZM23,19.8h4.5v1.95h-4.5v-1.95ZM23,22.25h4.5v1.95h-4.5v-1.95ZM23,24.7h4.5v1.95h-4.5v-1.95ZM23,27.15h4.5v1.95h-4.5v-1.95ZM23,29.6h4.5v1.95h-4.5v-1.95ZM23,32.05h4.5v1.95h-4.5v-1.95ZM21,34.59V9.41c0-.78.63-1.41,1.41-1.41h5.09v1.5h-4.75c-.14,0-.25.11-.25.25v24.5c0,.14.11.25.25.25h4.75v1.5h-5.09c-.78,0-1.41-.63-1.41-1.41ZM37,34.59c0,.78-.63,1.41-1.41,1.41h-5.09v-1.5h4.75c.14,0,.25-.11.25-.25V9.75c0-.14-.11-.25-.25-.25h-4.75v-1.5h5.09c.78,0,1.41.63,1.41,1.41v25.18Z"/>
  </g>
</svg>