<?xml version="1.0" encoding="UTF-8"?>
<svg id="a" data-name="Layer 1" xmlns="http://www.w3.org/2000/svg" viewBox="0 0 36 68">
  <defs>
    <style>
      .b {
        fill: #fff;
      }

      .c {
        fill: #231f20;
      }

      .d {
        fill: #bbbdbf;
      }

      .e {
        fill: #ec1c24;
      }
    </style>
  </defs>
  <rect class="b" width="36" height="68"/>
  <rect class="e" x="17" width="2" height="68"/>
  <g>
    <path class="b" d="M24.62,49.01h-13.24c-1.31,0-2.38-1.09-2.38-2.43v-25.13c0-1.34,1.07-2.43,2.38-2.43h13.24c1.31,0,2.38,1.09,2.38,2.43v25.13c0,1.34-1.07,2.43-2.38,2.43Z"/>
    <path class="c" d="M24.59,19.01h-13.18c-1.33,0-2.41,1.08-2.41,2.41v25.18c0,1.33,1.08,2.41,2.41,2.41h13.18c1.33,0,2.41-1.08,2.41-2.41v-25.18c0-1.33-1.08-2.41-2.41-2.41ZM19.5,44.06h4.5v1.95h-4.5v-1.95ZM24,43.56h-4.5v-1.95h4.5v1.95ZM24,41.11h-4.5v-1.95h4.5v1.95ZM24,38.66h-4.5v-1.95h4.5v1.95ZM24,36.21h-4.5v-1.95h4.5v1.95ZM24,33.76h-4.5v-1.95h4.5v1.95ZM24,31.31h-4.5v-1.95h4.5v1.95ZM24,28.86h-4.5v-1.95h4.5v1.95ZM24,26.41h-4.5v-1.95h4.5v1.95ZM24,23.96h-4.5v-1.95h4.5v1.95ZM19,21.76v26.25h-2v-28h2v1.75ZM16.5,23.96h-4.5v-1.95h4.5v1.95ZM12,24.46h4.5v1.95h-4.5v-1.95ZM12,26.91h4.5v1.95h-4.5v-1.95ZM12,29.36h4.5v1.95h-4.5v-1.95ZM12,31.81h4.5v1.95h-4.5v-1.95ZM12,34.26h4.5v1.95h-4.5v-1.95ZM12,36.71h4.5v1.95h-4.5v-1.95ZM12,39.16h4.5v1.95h-4.5v-1.95ZM12,41.61h4.5v1.95h-4.5v-1.95ZM12,44.06h4.5v1.95h-4.5v-1.95ZM10,46.6v-25.18c0-.78.63-1.41,1.41-1.41h5.09v1.5h-4.75c-.14,0-.25.11-.25.25v24.5c0,.14.11.25.25.25h4.75v1.5h-5.09c-.78,0-1.41-.63-1.41-1.41ZM26,46.6c0,.78-.63,1.41-1.41,1.41h-5.09v-1.5h4.75c.14,0,.25-.11.25-.25v-24.5c0-.14-.11-.25-.25-.25h-4.75v-1.5h5.09c.78,0,1.41.63,1.41,1.41v25.18Z"/>
  </g>
  <rect class="d" width="2" height="68"/>
  <rect class="d" x="34" width="2" height="68"/>
</svg>