<?xml version="1.0" encoding="UTF-8"?>
<svg id="a" data-name="Layer 1" xmlns="http://www.w3.org/2000/svg" viewBox="0 0 58 34">
  <defs>
    <style>
      .f {
        fill: #fff;
      }

      .g {
        fill: #231f20;
      }

      .h {
        fill: #b4b4b4;
      }

      .i {
        fill: #ec1c24;
      }
    </style>
  </defs>
  <rect id="b" data-name="BOUNDARY" class="f" width="58" height="34"/>
  <g id="c" data-name="TUBE">
    <rect class="i" x="28" width="2" height="34"/>
  </g>
  <rect id="d" data-name="JOIST-L" class="h" width="2" height="34"/>
  <rect id="e" data-name="JOIST-R" class="h" x="56" width="2" height="34"/>
  <g>
    <path class="f" d="M35.62,31.91h-13.24c-1.31,0-2.38-1.09-2.38-2.43V4.34c0-1.34,1.07-2.43,2.38-2.43h13.24c1.31,0,2.38,1.09,2.38,2.43v25.13c0,1.34-1.07,2.43-2.38,2.43Z"/>
    <path class="g" d="M35.59,1.91h-13.18c-1.33,0-2.41,1.08-2.41,2.41v25.18c0,1.33,1.08,2.41,2.41,2.41h13.18c1.33,0,2.41-1.08,2.41-2.41V4.32c0-1.33-1.08-2.41-2.41-2.41ZM30.5,26.96h4.5v1.95h-4.5v-1.95ZM35,26.46h-4.5v-1.95h4.5v1.95ZM35,24.01h-4.5v-1.95h4.5v1.95ZM35,21.56h-4.5v-1.95h4.5v1.95ZM35,19.11h-4.5v-1.95h4.5v1.95ZM35,16.66h-4.5v-1.95h4.5v1.95ZM35,14.21h-4.5v-1.95h4.5v1.95ZM35,11.76h-4.5v-1.95h4.5v1.95ZM35,9.31h-4.5v-1.95h4.5v1.95ZM35,6.86h-4.5v-1.95h4.5v1.95ZM30,4.66v26.25h-2V2.91h2v1.75ZM27.5,6.86h-4.5v-1.95h4.5v1.95ZM23,7.36h4.5v1.95h-4.5v-1.95ZM23,9.81h4.5v1.95h-4.5v-1.95ZM23,12.26h4.5v1.95h-4.5v-1.95ZM23,14.71h4.5v1.95h-4.5v-1.95ZM23,17.16h4.5v1.95h-4.5v-1.95ZM23,19.61h4.5v1.95h-4.5v-1.95ZM23,22.06h4.5v1.95h-4.5v-1.95ZM23,24.51h4.5v1.95h-4.5v-1.95ZM23,26.96h4.5v1.95h-4.5v-1.95ZM21,29.5V4.32c0-.78.63-1.41,1.41-1.41h5.09v1.5h-4.75c-.14,0-.25.11-.25.25v24.5c0,.14.11.25.25.25h4.75v1.5h-5.09c-.78,0-1.41-.63-1.41-1.41ZM37,29.5c0,.78-.63,1.41-1.41,1.41h-5.09v-1.5h4.75c.14,0,.25-.11.25-.25V4.66c0-.14-.11-.25-.25-.25h-4.75v-1.5h5.09c.78,0,1.41.63,1.41,1.41v25.18Z"/>
  </g>
</svg>