<?xml version="1.0" encoding="UTF-8"?>
<svg id="a" data-name="Layer 1" xmlns="http://www.w3.org/2000/svg" viewBox="0 0 58 34">
  <defs>
    <style>
      .f {
        fill: #fff;
      }

      .g {
        fill: #231f20;
      }

      .h {
        fill: #b4b4b4;
      }

      .i {
        fill: #ec1c24;
      }
    </style>
  </defs>
  <rect id="b" data-name="BOUNDARY" class="f" width="58" height="34"/>
  <g id="c" data-name="TUBE">
    <rect class="i" x="1" y="16" width="56" height="2"/>
  </g>
  <rect id="d" data-name="JOIST-L" class="h" width="2" height="34"/>
  <rect id="e" data-name="JOIST-R" class="h" x="56" width="2" height="34"/>
  <g>
    <path class="f" d="M44,10.38v13.24c0,1.31-1.09,2.38-2.43,2.38h-25.13c-1.34,0-2.43-1.07-2.43-2.38v-13.24c0-1.31,1.09-2.38,2.43-2.38h25.13c1.34,0,2.43,1.07,2.43,2.38Z"/>
    <path class="g" d="M14,10.41v13.18c0,1.33,1.08,2.41,2.41,2.41h25.18c1.33,0,2.41-1.08,2.41-2.41v-13.18c0-1.33-1.08-2.41-2.41-2.41h-25.18c-1.33,0-2.41,1.08-2.41,2.41ZM39.05,15.5v-4.5h1.95v4.5h-1.95ZM38.55,11v4.5h-1.95v-4.5h1.95ZM36.1,11v4.5h-1.95v-4.5h1.95ZM33.65,11v4.5h-1.95v-4.5h1.95ZM31.2,11v4.5h-1.95v-4.5h1.95ZM28.75,11v4.5h-1.95v-4.5h1.95ZM26.3,11v4.5h-1.95v-4.5h1.95ZM23.85,11v4.5h-1.95v-4.5h1.95ZM21.4,11v4.5h-1.95v-4.5h1.95ZM18.95,11v4.5h-1.95v-4.5h1.95ZM16.75,16h26.25v2H15v-2h1.75ZM18.95,18.5v4.5h-1.95v-4.5h1.95ZM19.45,23v-4.5h1.95v4.5h-1.95ZM21.9,23v-4.5h1.95v4.5h-1.95ZM24.35,23v-4.5h1.95v4.5h-1.95ZM26.8,23v-4.5h1.95v4.5h-1.95ZM29.25,23v-4.5h1.95v4.5h-1.95ZM31.7,23v-4.5h1.95v4.5h-1.95ZM34.15,23v-4.5h1.95v4.5h-1.95ZM36.6,23v-4.5h1.95v4.5h-1.95ZM39.05,23v-4.5h1.95v4.5h-1.95ZM41.59,25h-25.18c-.78,0-1.41-.63-1.41-1.41v-5.09h1.5v4.75c0,.14.11.25.25.25h24.5c.14,0,.25-.11.25-.25v-4.75h1.5v5.09c0,.78-.63,1.41-1.41,1.41ZM41.59,9c.78,0,1.41.63,1.41,1.41v5.09h-1.5v-4.75c0-.14-.11-.25-.25-.25h-24.5c-.14,0-.25.11-.25.25v4.75h-1.5v-5.09c0-.78.63-1.41,1.41-1.41h25.18Z"/>
  </g>
</svg>