<?xml version="1.0" encoding="UTF-8"?>
<svg id="a" data-name="Layer 1" xmlns="http://www.w3.org/2000/svg" viewBox="0 0 72 64">
  <defs>
    <style>
      .g {
        fill: #fff;
      }

      .h {
        fill: #231f20;
      }

      .i {
        fill: #bbbdbf;
      }

      .j {
        fill: #e61e1e;
      }
    </style>
  </defs>
  <rect id="b" data-name="BOUNDARY" class="g" width="72" height="64"/>
  <g id="c" data-name="TUBE-R">
    <rect class="j" x="49.34" y="0" width="2" height="64"/>
  </g>
  <g id="d" data-name="TUBE-L">
    <rect class="j" x="20.66" y="0" width="2" height="64"/>
  </g>
  <rect id="e" data-name="JOIST-L" class="i" width="2" height="64"/>
  <rect id="f" data-name="JOIST-R" class="i" x="70" width="2" height="64"/>
  <g>
    <path class="g" d="M28.28,46.97h-13.24c-1.31,0-2.38-1.09-2.38-2.43v-25.13c0-1.34,1.07-2.43,2.38-2.43h13.24c1.31,0,2.38,1.09,2.38,2.43v25.13c0,1.34-1.07,2.43-2.38,2.43Z"/>
    <path class="h" d="M28.25,16.97h-13.18c-1.33,0-2.41,1.08-2.41,2.41v25.18c0,1.33,1.08,2.41,2.41,2.41h13.18c1.33,0,2.41-1.08,2.41-2.41v-25.18c0-1.33-1.08-2.41-2.41-2.41ZM23.16,42.02h4.5v1.95h-4.5v-1.95ZM27.66,41.52h-4.5v-1.95h4.5v1.95ZM27.66,39.07h-4.5v-1.95h4.5v1.95ZM27.66,36.62h-4.5v-1.95h4.5v1.95ZM27.66,34.17h-4.5v-1.95h4.5v1.95ZM27.66,31.72h-4.5v-1.95h4.5v1.95ZM27.66,29.27h-4.5v-1.95h4.5v1.95ZM27.66,26.82h-4.5v-1.95h4.5v1.95ZM27.66,24.37h-4.5v-1.95h4.5v1.95ZM27.66,21.92h-4.5v-1.95h4.5v1.95ZM22.66,19.72v26.25h-2v-28h2v1.75ZM20.16,21.92h-4.5v-1.95h4.5v1.95ZM15.66,22.42h4.5v1.95h-4.5v-1.95ZM15.66,24.87h4.5v1.95h-4.5v-1.95ZM15.66,27.32h4.5v1.95h-4.5v-1.95ZM15.66,29.77h4.5v1.95h-4.5v-1.95ZM15.66,32.22h4.5v1.95h-4.5v-1.95ZM15.66,34.67h4.5v1.95h-4.5v-1.95ZM15.66,37.12h4.5v1.95h-4.5v-1.95ZM15.66,39.57h4.5v1.95h-4.5v-1.95ZM15.66,42.02h4.5v1.95h-4.5v-1.95ZM13.66,44.56v-25.18c0-.78.63-1.41,1.41-1.41h5.09v1.5h-4.75c-.14,0-.25.11-.25.25v24.5c0,.14.11.25.25.25h4.75v1.5h-5.09c-.78,0-1.41-.63-1.41-1.41ZM29.66,44.56c0,.78-.63,1.41-1.41,1.41h-5.09v-1.5h4.75c.14,0,.25-.11.25-.25v-24.5c0-.14-.11-.25-.25-.25h-4.75v-1.5h5.09c.78,0,1.41.63,1.41,1.41v25.18Z"/>
  </g>
  <g>
    <path class="g" d="M56.96,46.97h-13.24c-1.31,0-2.38-1.09-2.38-2.43v-25.13c0-1.34,1.07-2.43,2.38-2.43h13.24c1.31,0,2.38,1.09,2.38,2.43v25.13c0,1.34-1.07,2.43-2.38,2.43Z"/>
    <path class="h" d="M56.93,16.97h-13.18c-1.33,0-2.41,1.08-2.41,2.41v25.18c0,1.33,1.08,2.41,2.41,2.41h13.18c1.33,0,2.41-1.08,2.41-2.41v-25.18c0-1.33-1.08-2.41-2.41-2.41ZM51.84,42.02h4.5v1.95h-4.5v-1.95ZM56.34,41.52h-4.5v-1.95h4.5v1.95ZM56.34,39.07h-4.5v-1.95h4.5v1.95ZM56.34,36.62h-4.5v-1.95h4.5v1.95ZM56.34,34.17h-4.5v-1.95h4.5v1.95ZM56.34,31.72h-4.5v-1.95h4.5v1.95ZM56.34,29.27h-4.5v-1.95h4.5v1.95ZM56.34,26.82h-4.5v-1.95h4.5v1.95ZM56.34,24.37h-4.5v-1.95h4.5v1.95ZM56.34,21.92h-4.5v-1.95h4.5v1.95ZM51.34,19.72v26.25h-2v-28h2v1.75ZM48.84,21.92h-4.5v-1.95h4.5v1.95ZM44.34,22.42h4.5v1.95h-4.5v-1.95ZM44.34,24.87h4.5v1.95h-4.5v-1.95ZM44.34,27.32h4.5v1.95h-4.5v-1.95ZM44.34,29.77h4.5v1.95h-4.5v-1.95ZM44.34,32.22h4.5v1.95h-4.5v-1.95ZM44.34,34.67h4.5v1.95h-4.5v-1.95ZM44.34,37.12h4.5v1.95h-4.5v-1.95ZM44.34,39.57h4.5v1.95h-4.5v-1.95ZM44.34,42.02h4.5v1.95h-4.5v-1.95ZM42.34,44.56v-25.18c0-.78.63-1.41,1.41-1.41h5.09v1.5h-4.75c-.14,0-.25.11-.25.25v24.5c0,.14.11.25.25.25h4.75v1.5h-5.09c-.78,0-1.41-.63-1.41-1.41ZM58.34,44.56c0,.78-.63,1.41-1.41,1.41h-5.09v-1.5h4.75c.14,0,.25-.11.25-.25v-24.5c0-.14-.11-.25-.25-.25h-4.75v-1.5h5.09c.78,0,1.41.63,1.41,1.41v25.18Z"/>
  </g>
</svg>