<?xml version="1.0" encoding="UTF-8"?>
<svg id="a" data-name="Layer 1" xmlns="http://www.w3.org/2000/svg" viewBox="0 0 72.02 52">
  <defs>
    <style>
      .g {
        fill: #fff;
      }

      .h {
        fill: #231f20;
      }

      .i {
        fill: #b4b4b4;
      }

      .j {
        fill: #ec1c24;
      }
    </style>
  </defs>
  <rect id="b" data-name="BOUNDARY" class="g" width="72" height="52"/>
  <g id="c" data-name="TUBE-R">
    <rect class="j" x="49.34" y="0" width="2" height="52"/>
  </g>
  <g id="d" data-name="TUBE-L">
    <rect class="j" x="20.66" y="0" width="2" height="52"/>
  </g>
  <rect id="e" data-name="JOIST-R" class="i" x="70.02" width="2" height="52"/>
  <rect id="f" data-name="JOIST-L" class="i" width="2" height="52"/>
  <g>
    <path class="g" d="M28.28,41h-13.24c-1.31,0-2.38-1.09-2.38-2.43V13.43c0-1.34,1.07-2.43,2.38-2.43h13.24c1.31,0,2.38,1.09,2.38,2.43v25.13c0,1.34-1.07,2.43-2.38,2.43Z"/>
    <path class="h" d="M28.25,11h-13.18c-1.33,0-2.41,1.08-2.41,2.41v25.18c0,1.33,1.08,2.41,2.41,2.41h13.18c1.33,0,2.41-1.08,2.41-2.41V13.41c0-1.33-1.08-2.41-2.41-2.41ZM23.16,36.05h4.5v1.95h-4.5v-1.95ZM27.66,35.55h-4.5v-1.95h4.5v1.95ZM27.66,33.1h-4.5v-1.95h4.5v1.95ZM27.66,30.65h-4.5v-1.95h4.5v1.95ZM27.66,28.2h-4.5v-1.95h4.5v1.95ZM27.66,25.75h-4.5v-1.95h4.5v1.95ZM27.66,23.3h-4.5v-1.95h4.5v1.95ZM27.66,20.85h-4.5v-1.95h4.5v1.95ZM27.66,18.4h-4.5v-1.95h4.5v1.95ZM27.66,15.95h-4.5v-1.95h4.5v1.95ZM22.66,13.75v26.25h-2V12h2v1.75ZM20.16,15.95h-4.5v-1.95h4.5v1.95ZM15.66,16.45h4.5v1.95h-4.5v-1.95ZM15.66,18.9h4.5v1.95h-4.5v-1.95ZM15.66,21.35h4.5v1.95h-4.5v-1.95ZM15.66,23.8h4.5v1.95h-4.5v-1.95ZM15.66,26.25h4.5v1.95h-4.5v-1.95ZM15.66,28.7h4.5v1.95h-4.5v-1.95ZM15.66,31.15h4.5v1.95h-4.5v-1.95ZM15.66,33.6h4.5v1.95h-4.5v-1.95ZM15.66,36.05h4.5v1.95h-4.5v-1.95ZM13.66,38.59V13.41c0-.78.63-1.41,1.41-1.41h5.09v1.5h-4.75c-.14,0-.25.11-.25.25v24.5c0,.14.11.25.25.25h4.75v1.5h-5.09c-.78,0-1.41-.63-1.41-1.41ZM29.66,38.59c0,.78-.63,1.41-1.41,1.41h-5.09v-1.5h4.75c.14,0,.25-.11.25-.25V13.75c0-.14-.11-.25-.25-.25h-4.75v-1.5h5.09c.78,0,1.41.63,1.41,1.41v25.18Z"/>
  </g>
  <g>
    <path class="g" d="M56.96,41h-13.24c-1.31,0-2.38-1.09-2.38-2.43V13.43c0-1.34,1.07-2.43,2.38-2.43h13.24c1.31,0,2.38,1.09,2.38,2.43v25.13c0,1.34-1.07,2.43-2.38,2.43Z"/>
    <path class="h" d="M56.93,11h-13.18c-1.33,0-2.41,1.08-2.41,2.41v25.18c0,1.33,1.08,2.41,2.41,2.41h13.18c1.33,0,2.41-1.08,2.41-2.41V13.41c0-1.33-1.08-2.41-2.41-2.41ZM51.84,36.05h4.5v1.95h-4.5v-1.95ZM56.34,35.55h-4.5v-1.95h4.5v1.95ZM56.34,33.1h-4.5v-1.95h4.5v1.95ZM56.34,30.65h-4.5v-1.95h4.5v1.95ZM56.34,28.2h-4.5v-1.95h4.5v1.95ZM56.34,25.75h-4.5v-1.95h4.5v1.95ZM56.34,23.3h-4.5v-1.95h4.5v1.95ZM56.34,20.85h-4.5v-1.95h4.5v1.95ZM56.34,18.4h-4.5v-1.95h4.5v1.95ZM56.34,15.95h-4.5v-1.95h4.5v1.95ZM51.34,13.75v26.25h-2V12h2v1.75ZM48.84,15.95h-4.5v-1.95h4.5v1.95ZM44.34,16.45h4.5v1.95h-4.5v-1.95ZM44.34,18.9h4.5v1.95h-4.5v-1.95ZM44.34,21.35h4.5v1.95h-4.5v-1.95ZM44.34,23.8h4.5v1.95h-4.5v-1.95ZM44.34,26.25h4.5v1.95h-4.5v-1.95ZM44.34,28.7h4.5v1.95h-4.5v-1.95ZM44.34,31.15h4.5v1.95h-4.5v-1.95ZM44.34,33.6h4.5v1.95h-4.5v-1.95ZM44.34,36.05h4.5v1.95h-4.5v-1.95ZM42.34,38.59V13.41c0-.78.63-1.41,1.41-1.41h5.09v1.5h-4.75c-.14,0-.25.11-.25.25v24.5c0,.14.11.25.25.25h4.75v1.5h-5.09c-.78,0-1.41-.63-1.41-1.41ZM58.34,38.59c0,.78-.63,1.41-1.41,1.41h-5.09v-1.5h4.75c.14,0,.25-.11.25-.25V13.75c0-.14-.11-.25-.25-.25h-4.75v-1.5h5.09c.78,0,1.41.63,1.41,1.41v25.18Z"/>
  </g>
</svg>