<?xml version="1.0" encoding="UTF-8"?>
<svg id="a" data-name="Layer 1" xmlns="http://www.w3.org/2000/svg" viewBox="0 0 72.02 52">
  <defs>
    <style>
      .f {
        fill: #fff;
      }

      .g {
        fill: #231f20;
      }

      .h {
        fill: #b4b4b4;
      }

      .i {
        fill: #ec1c24;
      }
    </style>
  </defs>
  <rect id="b" data-name="BOUNDARY" class="f" width="72" height="52"/>
  <g id="c" data-name="TUBE">
    <rect class="i" x=".98" y="25" width="70.03" height="2"/>
  </g>
  <rect id="d" data-name="JOIST-R" class="h" x="70.02" width="2" height="52"/>
  <rect id="e" data-name="JOIST-L" class="h" width="2" height="52"/>
  <g>
    <path class="f" d="M34.67,19.38v13.24c0,1.31-1.09,2.38-2.43,2.38H7.1c-1.34,0-2.43-1.07-2.43-2.38v-13.24c0-1.31,1.09-2.38,2.43-2.38h25.13c1.34,0,2.43,1.07,2.43,2.38Z"/>
    <path class="g" d="M4.67,19.41v13.18c0,1.33,1.08,2.41,2.41,2.41h25.18c1.33,0,2.41-1.08,2.41-2.41v-13.18c0-1.33-1.08-2.41-2.41-2.41H7.08c-1.33,0-2.41,1.08-2.41,2.41ZM29.72,24.5v-4.5h1.95v4.5h-1.95ZM29.22,20v4.5h-1.95v-4.5h1.95ZM26.77,20v4.5h-1.95v-4.5h1.95ZM24.32,20v4.5h-1.95v-4.5h1.95ZM21.87,20v4.5h-1.95v-4.5h1.95ZM19.42,20v4.5h-1.95v-4.5h1.95ZM16.97,20v4.5h-1.95v-4.5h1.95ZM14.52,20v4.5h-1.95v-4.5h1.95ZM12.07,20v4.5h-1.95v-4.5h1.95ZM9.62,20v4.5h-1.95v-4.5h1.95ZM7.42,25h26.25v2H5.67v-2h1.75ZM9.62,27.5v4.5h-1.95v-4.5h1.95ZM10.12,32v-4.5h1.95v4.5h-1.95ZM12.57,32v-4.5h1.95v4.5h-1.95ZM15.02,32v-4.5h1.95v4.5h-1.95ZM17.47,32v-4.5h1.95v4.5h-1.95ZM19.92,32v-4.5h1.95v4.5h-1.95ZM22.37,32v-4.5h1.95v4.5h-1.95ZM24.82,32v-4.5h1.95v4.5h-1.95ZM27.27,32v-4.5h1.95v4.5h-1.95ZM29.72,32v-4.5h1.95v4.5h-1.95ZM32.26,34H7.08c-.78,0-1.41-.63-1.41-1.41v-5.09h1.5v4.75c0,.14.11.25.25.25h24.5c.14,0,.25-.11.25-.25v-4.75h1.5v5.09c0,.78-.63,1.41-1.41,1.41ZM32.26,18c.78,0,1.41.63,1.41,1.41v5.09h-1.5v-4.75c0-.14-.11-.25-.25-.25H7.42c-.14,0-.25.11-.25.25v4.75h-1.5v-5.09c0-.78.63-1.41,1.41-1.41h25.18Z"/>
  </g>
  <g>
    <path class="f" d="M67.35,19.38v13.24c0,1.31-1.09,2.38-2.43,2.38h-25.13c-1.34,0-2.43-1.07-2.43-2.38v-13.24c0-1.31,1.09-2.38,2.43-2.38h25.13c1.34,0,2.43,1.07,2.43,2.38Z"/>
    <path class="g" d="M37.35,19.41v13.18c0,1.33,1.08,2.41,2.41,2.41h25.18c1.33,0,2.41-1.08,2.41-2.41v-13.18c0-1.33-1.08-2.41-2.41-2.41h-25.18c-1.33,0-2.41,1.08-2.41,2.41ZM62.4,24.5v-4.5h1.95v4.5h-1.95ZM61.9,20v4.5h-1.95v-4.5h1.95ZM59.45,20v4.5h-1.95v-4.5h1.95ZM57,20v4.5h-1.95v-4.5h1.95ZM54.55,20v4.5h-1.95v-4.5h1.95ZM52.1,20v4.5h-1.95v-4.5h1.95ZM49.65,20v4.5h-1.95v-4.5h1.95ZM47.2,20v4.5h-1.95v-4.5h1.95ZM44.75,20v4.5h-1.95v-4.5h1.95ZM42.3,20v4.5h-1.95v-4.5h1.95ZM40.1,25h26.25v2h-28v-2h1.75ZM42.3,27.5v4.5h-1.95v-4.5h1.95ZM42.8,32v-4.5h1.95v4.5h-1.95ZM45.25,32v-4.5h1.95v4.5h-1.95ZM47.7,32v-4.5h1.95v4.5h-1.95ZM50.15,32v-4.5h1.95v4.5h-1.95ZM52.6,32v-4.5h1.95v4.5h-1.95ZM55.05,32v-4.5h1.95v4.5h-1.95ZM57.5,32v-4.5h1.95v4.5h-1.95ZM59.95,32v-4.5h1.95v4.5h-1.95ZM62.4,32v-4.5h1.95v4.5h-1.95ZM64.94,34h-25.18c-.78,0-1.41-.63-1.41-1.41v-5.09h1.5v4.75c0,.14.11.25.25.25h24.5c.14,0,.25-.11.25-.25v-4.75h1.5v5.09c0,.78-.63,1.41-1.41,1.41ZM64.94,18c.78,0,1.41.63,1.41,1.41v5.09h-1.5v-4.75c0-.14-.11-.25-.25-.25h-24.5c-.14,0-.25.11-.25.25v4.75h-1.5v-5.09c0-.78.63-1.41,1.41-1.41h25.18Z"/>
  </g>
</svg>