<?xml version="1.0" encoding="UTF-8"?>
<svg id="a" data-name="Layer 1" xmlns="http://www.w3.org/2000/svg" viewBox="0 0 72.02 64">
  <defs>
    <style>
      .f {
        fill: #fff;
      }

      .g {
        fill: #231f20;
      }

      .h {
        fill: #bbbdbf;
      }

      .i {
        fill: #e61e1e;
      }
    </style>
  </defs>
  <rect id="b" data-name="BOUNDARY" class="f" x=".02" width="72" height="64"/>
  <g id="c" data-name="TUBE">
    <rect class="i" x="1" y="31" width="70.04" height="2"/>
  </g>
  <rect id="d" data-name="JOIST-L" class="h" width="2" height="64"/>
  <rect id="e" data-name="JOIST-R" class="h" x="70.02" width="2" height="64"/>
  <g>
    <path class="f" d="M34.68,25.38v13.24c0,1.31-1.09,2.38-2.43,2.38H7.11c-1.34,0-2.43-1.07-2.43-2.38v-13.24c0-1.31,1.09-2.38,2.43-2.38h25.13c1.34,0,2.43,1.07,2.43,2.38Z"/>
    <path class="g" d="M4.68,25.41v13.18c0,1.33,1.08,2.41,2.41,2.41h25.18c1.33,0,2.41-1.08,2.41-2.41v-13.18c0-1.33-1.08-2.41-2.41-2.41H7.09c-1.33,0-2.41,1.08-2.41,2.41ZM29.73,30.5v-4.5h1.95v4.5h-1.95ZM29.23,26v4.5h-1.95v-4.5h1.95ZM26.78,26v4.5h-1.95v-4.5h1.95ZM24.33,26v4.5h-1.95v-4.5h1.95ZM21.88,26v4.5h-1.95v-4.5h1.95ZM19.43,26v4.5h-1.95v-4.5h1.95ZM16.98,26v4.5h-1.95v-4.5h1.95ZM14.53,26v4.5h-1.95v-4.5h1.95ZM12.08,26v4.5h-1.95v-4.5h1.95ZM9.63,26v4.5h-1.95v-4.5h1.95ZM7.43,31h26.25v2H5.68v-2h1.75ZM9.63,33.5v4.5h-1.95v-4.5h1.95ZM10.13,38v-4.5h1.95v4.5h-1.95ZM12.58,38v-4.5h1.95v4.5h-1.95ZM15.03,38v-4.5h1.95v4.5h-1.95ZM17.48,38v-4.5h1.95v4.5h-1.95ZM19.93,38v-4.5h1.95v4.5h-1.95ZM22.38,38v-4.5h1.95v4.5h-1.95ZM24.83,38v-4.5h1.95v4.5h-1.95ZM27.28,38v-4.5h1.95v4.5h-1.95ZM29.73,38v-4.5h1.95v4.5h-1.95ZM32.27,40H7.09c-.78,0-1.41-.63-1.41-1.41v-5.09h1.5v4.75c0,.14.11.25.25.25h24.5c.14,0,.25-.11.25-.25v-4.75h1.5v5.09c0,.78-.63,1.41-1.41,1.41ZM32.27,24c.78,0,1.41.63,1.41,1.41v5.09h-1.5v-4.75c0-.14-.11-.25-.25-.25H7.43c-.14,0-.25.11-.25.25v4.75h-1.5v-5.09c0-.78.63-1.41,1.41-1.41h25.18Z"/>
  </g>
  <g>
    <path class="f" d="M67.36,25.38v13.24c0,1.31-1.09,2.38-2.43,2.38h-25.13c-1.34,0-2.43-1.07-2.43-2.38v-13.24c0-1.31,1.09-2.38,2.43-2.38h25.13c1.34,0,2.43,1.07,2.43,2.38Z"/>
    <path class="g" d="M37.36,25.41v13.18c0,1.33,1.08,2.41,2.41,2.41h25.18c1.33,0,2.41-1.08,2.41-2.41v-13.18c0-1.33-1.08-2.41-2.41-2.41h-25.18c-1.33,0-2.41,1.08-2.41,2.41ZM62.41,30.5v-4.5h1.95v4.5h-1.95ZM61.91,26v4.5h-1.95v-4.5h1.95ZM59.46,26v4.5h-1.95v-4.5h1.95ZM57.01,26v4.5h-1.95v-4.5h1.95ZM54.56,26v4.5h-1.95v-4.5h1.95ZM52.11,26v4.5h-1.95v-4.5h1.95ZM49.66,26v4.5h-1.95v-4.5h1.95ZM47.21,26v4.5h-1.95v-4.5h1.95ZM44.76,26v4.5h-1.95v-4.5h1.95ZM42.31,26v4.5h-1.95v-4.5h1.95ZM40.11,31h26.25v2h-28v-2h1.75ZM42.31,33.5v4.5h-1.95v-4.5h1.95ZM42.81,38v-4.5h1.95v4.5h-1.95ZM45.26,38v-4.5h1.95v4.5h-1.95ZM47.71,38v-4.5h1.95v4.5h-1.95ZM50.16,38v-4.5h1.95v4.5h-1.95ZM52.61,38v-4.5h1.95v4.5h-1.95ZM55.06,38v-4.5h1.95v4.5h-1.95ZM57.51,38v-4.5h1.95v4.5h-1.95ZM59.96,38v-4.5h1.95v4.5h-1.95ZM62.41,38v-4.5h1.95v4.5h-1.95ZM64.95,40h-25.18c-.78,0-1.41-.63-1.41-1.41v-5.09h1.5v4.75c0,.14.11.25.25.25h24.5c.14,0,.25-.11.25-.25v-4.75h1.5v5.09c0,.78-.63,1.41-1.41,1.41ZM64.95,24c.78,0,1.41.63,1.41,1.41v5.09h-1.5v-4.75c0-.14-.11-.25-.25-.25h-24.5c-.14,0-.25.11-.25.25v4.75h-1.5v-5.09c0-.78.63-1.41,1.41-1.41h25.18Z"/>
  </g>
</svg>