<?xml version="1.0" encoding="UTF-8"?>
<svg id="a" data-name="Layer 1" xmlns="http://www.w3.org/2000/svg" viewBox="0 0 48 48">
  <defs>
    <style>
      .b {
        fill: none;
      }

      .c {
        fill: #666;
      }
    </style>
  </defs>
  <path class="c" d="M44.51,24.53c-.39-.39-1.02-.39-1.41,0-.39.39-.39,1.02,0,1.41,2.75,2.75,2.75,7.23,0,9.99-2.75,2.75-7.23,2.75-9.99,0-1.31-1.31-2.04-3.04-2.06-4.89,0-.04.02-.07.02-.11s-.02-.07-.02-.11c.03-1.85.76-3.58,2.06-4.89.39-.39.39-1.02,0-1.41s-1.02-.39-1.41,0c-1.47,1.47-2.37,3.37-2.6,5.41h-4.09v-6.24c1.98-.22,3.9-1.08,5.41-2.59,3.53-3.53,3.53-9.28,0-12.82-.39-.39-1.02-.39-1.41,0-.39.39-.39,1.02,0,1.41,2.75,2.75,2.75,7.23,0,9.99-2.75,2.75-7.23,2.75-9.99,0-2.75-2.75-2.75-7.23,0-9.99.39-.39.39-1.02,0-1.41-.39-.39-1.02-.39-1.41,0-3.53,3.53-3.53,9.28,0,12.82,1.51,1.51,3.43,2.37,5.41,2.59v6.24h-4.09c-.22-2.04-1.12-3.93-2.6-5.41-.39-.39-1.02-.39-1.41,0s-.39,1.02,0,1.41c1.33,1.33,2.07,3.11,2.07,4.99s-.74,3.66-2.07,4.99c-2.75,2.75-7.23,2.75-9.99,0-2.75-2.75-2.75-7.23,0-9.99.39-.39.39-1.02,0-1.41-.39-.39-1.02-.39-1.41,0C-.04,28.06-.04,33.81,3.49,37.35c1.77,1.77,4.09,2.65,6.41,2.65,2.32,0,4.64-.88,6.41-2.65,1.47-1.47,2.37-3.37,2.6-5.41h10.19c.22,2.04,1.12,3.93,2.6,5.41,1.77,1.77,4.09,2.65,6.41,2.65s4.64-.88,6.41-2.65c3.53-3.53,3.53-9.28,0-12.82Z"/>
  <rect class="b" width="48" height="48"/>
</svg>