<?xml version="1.0" encoding="UTF-8"?>
<svg id="a" data-name="Layer 1" xmlns="http://www.w3.org/2000/svg" viewBox="0 0 48 48">
  <defs>
    <style>
      .b {
        fill: #8dc63f;
      }

      .c {
        fill: none;
      }
    </style>
  </defs>
  <g>
    <path class="b" d="M24,22.01c2.68,0,5.23.77,7.42,2.18v-13.97c0-.33-.1-.68-.27-.97l-2.8-4.77c-.18-.32-.5-.5-.87-.5h-7c-.35,0-.68.2-.87.5l-2.75,4.77c-.18.3-.27.62-.27.97v13.97c2.18-1.43,4.73-2.18,7.4-2.18ZM24,8.18c1.12,0,2.03.9,2.03,2.02s-.92,2.02-2.03,2.02-2.02-.9-2.02-2.02.9-2.02,2.02-2.02Z"/>
    <path class="b" d="M34.32,35.67c0,3.42-1.66,6.45-4.22,8.33,0,0,0,0,0,0-.51-.28-.85-1.17-.85-1.74v-1.35c0-.42.19-.77.27-.91.02-.03.04-.05.06-.08-.26-.17-.42-.47-.42-.8,0-.54.44-.97.97-.97.14,0,.28.03.4.09.31-.79.48-1.65.48-2.56,0-.95-.19-1.86-.53-2.68-.13.07-.28.11-.44.11-.54,0-.97-.44-.97-.97,0-.34.17-.63.43-.8-1.09-1.38-2.69-2.33-4.52-2.59-.03.51-.46.91-.97.91s-.94-.4-.97-.91c-1.83.25-3.43,1.21-4.52,2.59.26.17.43.47.43.8,0,.54-.44.97-.97.97-.16,0-.31-.04-.44-.11-.34.83-.53,1.73-.53,2.68s.17,1.77.48,2.56c.13-.06.27-.09.42-.09.54,0,.97.44.97.97,0,.34-.17.64-.43.81h0s.32.45.32.98v1.35c0,.57-.34,1.47-.85,1.74h0c-2.56-1.88-4.22-4.91-4.22-8.32,0-2.82,1.13-5.37,2.96-7.23,1.87-1.91,4.48-3.09,7.37-3.09s5.53,1.2,7.41,3.13c1.8,1.86,2.92,4.39,2.92,7.19Z"/>
  </g>
  <rect class="c" width="48" height="48"/>
</svg>