<?xml version="1.0" encoding="UTF-8"?>
<svg id="a" data-name="Layer 1" xmlns="http://www.w3.org/2000/svg" viewBox="0 0 48 48">
  <defs>
    <style>
      .b {
        fill: none;
      }

      .c {
        fill: #666;
      }
    </style>
  </defs>
  <path class="c" d="M42.78,29.94h-1.67c-.32-4.21-2.65-7.85-6.04-9.98h5.79c1.73,0,3.36-.67,4.58-1.9s1.9-2.85,1.9-4.57c0-3.57-2.91-6.48-6.48-6.48h-12.98l-6.1,2.57h-5.4l-3.34,2.95H1.66c-.55,0-1,.45-1,1s.45,1,1,1h11.38l3.34,3.08h5.42l6.1,2.35h.27c5.72,0,10.42,4.39,10.93,9.98h-7.45c-2.52,0-4.56,2.05-4.56,4.56v1.94c0,2.52,2.05,4.56,4.56,4.56h11.13c2.52,0,4.56-2.05,4.56-4.56v-1.94c0-2.52-2.05-4.56-4.56-4.56ZM45.34,13.48c0,1.19-.47,2.31-1.31,3.16-.85.85-1.97,1.31-3.17,1.31h-11.77v-8.96h11.77c2.47,0,4.48,2.01,4.48,4.48ZM14.92,13.54l2.23-1.96h3.84v4.03h-3.83l-2.24-2.06ZM22.99,11.24l4.1-1.73v7.99l-4.1-1.58v-4.68ZM45.34,36.44c0,1.41-1.15,2.56-2.56,2.56h-11.13c-1.41,0-2.56-1.15-2.56-2.56v-1.94c0-1.41,1.15-2.56,2.56-2.56h11.13c1.41,0,2.56,1.15,2.56,2.56v1.94Z"/>
  <rect class="b" width="48" height="48"/>
</svg>