<?xml version="1.0" encoding="UTF-8"?>
<svg id="r" data-name="PROFILE_12-300_OpenWeb" xmlns="http://www.w3.org/2000/svg" viewBox="0 0 104 64">
  <defs>
    <style>
      .v, .w, .x, .y, .z {
        fill: none;
      }

      .v, .x {
        stroke: #666;
      }

      .v, .x, .y, .z {
        stroke-miterlimit: 10;
      }

      .aa {
        fill: #8dc63f;
      }

      .ab {
        fill: #fff;
      }

      .ac {
        fill: #dfe0e1;
      }

      .ad {
        fill: #666;
      }

      .ae {
        fill: #cccecf;
      }

      .x, .y {
        stroke-linecap: round;
      }

      .af {
        fill: #999;
      }

      .y {
        stroke: gray;
      }

      .z {
        stroke: #ec1c24;
        stroke-width: 4px;
      }
    </style>
  </defs>
  <line class="y" x1="62.67" y1="34.36" x2="62.67" y2="27.36"/>
  <line class="y" x1="41.33" y1="34.36" x2="41.33" y2="27.36"/>
  <line class="z" x1="80.18" y1="23.86" x2="23.82" y2="23.86"/>
  <rect class="ac" x="31.34" y="14" width="3" height="40"/>
  <rect class="ac" x="69.66" y="14" width="3" height="40"/>
  <g>
    <g>
      <rect class="ad" x="35" y="20.36" width="34" height="7" rx="1" ry="1"/>
      <rect class="ab" x="36" y="21.36" width="32" height="5"/>
    </g>
    <line class="v" x1="68" y1="23.86" x2="36" y2="23.86"/>
    <g>
      <line class="x" x1="64.78" y1="22.61" x2="67.52" y2="27.36"/>
      <line class="x" x1="61.78" y1="22.61" x2="64.52" y2="27.36"/>
      <line class="x" x1="58.77" y1="22.61" x2="61.52" y2="27.36"/>
      <line class="x" x1="55.77" y1="22.61" x2="58.52" y2="27.36"/>
      <line class="x" x1="52.77" y1="22.61" x2="55.52" y2="27.36"/>
      <line class="x" x1="49.77" y1="22.61" x2="52.51" y2="27.36"/>
      <line class="x" x1="46.77" y1="22.61" x2="49.51" y2="27.36"/>
      <line class="x" x1="43.77" y1="22.61" x2="46.51" y2="27.36"/>
      <line class="x" x1="40.77" y1="22.61" x2="43.51" y2="27.36"/>
      <line class="x" x1="37.77" y1="22.61" x2="40.51" y2="27.36"/>
    </g>
  </g>
  <rect class="w" x=".06" width="103.87" height="64"/>
  <g>
    <g>
      <path class="ad" d="M25.26,25.36c-.52,0-.94-.42-.94-.94v-1.69c0-.39.32-.71.71-.71h2.59c.39,0,.71.32.71.71v1.69c0,.52-.42.94-.94.94h-2.12Z"/>
      <path class="aa" d="M25.02,22.52h2.59c.11,0,.21.09.21.21v1.69c0,.24-.2.44-.44.44h-2.12c-.24,0-.44-.2-.44-.44v-1.69c0-.11.09-.21.21-.21Z"/>
    </g>
    <g>
      <path class="ad" d="M25.02,22.52c-.39,0-.71-.32-.71-.71v-4.38c0-.52.42-.94.94-.94h2.12c.52,0,.94.42.94.94v4.38c0,.39-.32.71-.71.71h-2.59Z"/>
      <path class="aa" d="M27.61,22.02h-2.59c-.11,0-.21-.09-.21-.21v-4.38c0-.24.2-.44.44-.44h2.12c.24,0,.44.2.44.44v4.38c0,.11-.09.21-.21.21Z"/>
    </g>
  </g>
  <rect class="ae" x="28.34" y="14" width="3" height="6"/>
  <rect class="ae" x="28.34" y="47.98" width="3" height="6"/>
  <rect class="ae" x="72.66" y="14" width="3" height="6"/>
  <rect class="ae" x="72.66" y="47.98" width="3" height="6"/>
  <rect class="af" x="28.34" y="10" width="47.31" height="4"/>
</svg>