<?xml version="1.0" encoding="UTF-8"?>
<svg id="t" data-name="PROFILE_19-488_OpenWeb" xmlns="http://www.w3.org/2000/svg" viewBox="0 0 104 64">
  <defs>
    <style>
      .v, .w, .x, .y, .z {
        fill: none;
      }

      .v, .x {
        stroke: #666;
      }

      .v, .x, .y, .z {
        stroke-miterlimit: 10;
      }

      .aa {
        fill: #8dc63f;
      }

      .ab {
        fill: #fff;
      }

      .ac {
        fill: #dfe0e1;
      }

      .ad {
        fill: #666;
      }

      .ae {
        fill: #cccecf;
      }

      .x, .y {
        stroke-linecap: round;
      }

      .af {
        fill: #999;
      }

      .y {
        stroke: gray;
      }

      .z {
        stroke: #ec1c24;
        stroke-width: 4px;
      }
    </style>
  </defs>
  <line class="y" x1="62.66" y1="34.37" x2="62.66" y2="27.37"/>
  <line class="y" x1="41.33" y1="34.37" x2="41.33" y2="27.37"/>
  <line class="z" x1="92.04" y1="23.87" x2="11.98" y2="23.87"/>
  <g>
    <g>
      <rect class="ad" x="35.02" y="20.37" width="34" height="7" rx="1" ry="1"/>
      <rect class="ab" x="36.02" y="21.37" width="32" height="5"/>
    </g>
    <line class="v" x1="68.02" y1="23.87" x2="36.02" y2="23.87"/>
    <g>
      <line class="x" x1="64.79" y1="22.62" x2="67.54" y2="27.37"/>
      <line class="x" x1="61.79" y1="22.62" x2="64.54" y2="27.37"/>
      <line class="x" x1="58.79" y1="22.62" x2="61.54" y2="27.37"/>
      <line class="x" x1="55.79" y1="22.62" x2="58.53" y2="27.37"/>
      <line class="x" x1="52.79" y1="22.62" x2="55.53" y2="27.37"/>
      <line class="x" x1="49.79" y1="22.62" x2="52.53" y2="27.37"/>
      <line class="x" x1="46.79" y1="22.62" x2="49.53" y2="27.37"/>
      <line class="x" x1="43.79" y1="22.62" x2="46.53" y2="27.37"/>
      <line class="x" x1="40.79" y1="22.62" x2="43.53" y2="27.37"/>
      <line class="x" x1="37.78" y1="22.62" x2="40.53" y2="27.37"/>
    </g>
  </g>
  <rect class="w" x=".06" width="103.87" height="64"/>
  <g>
    <g>
      <path class="ad" d="M13.41,25.37c-.52,0-.94-.42-.94-.94v-1.69c0-.39.32-.71.71-.71h2.59c.39,0,.71.32.71.71v1.69c0,.52-.42.94-.94.94h-2.12Z"/>
      <path class="aa" d="M13.18,22.53h2.59c.11,0,.21.09.21.21v1.69c0,.24-.2.44-.44.44h-2.12c-.24,0-.44-.2-.44-.44v-1.69c0-.11.09-.21.21-.21Z"/>
    </g>
    <g>
      <path class="ad" d="M13.18,22.53c-.39,0-.71-.32-.71-.71v-4.38c0-.52.42-.94.94-.94h2.12c.52,0,.94.42.94.94v4.38c0,.39-.32.71-.71.71h-2.59Z"/>
      <path class="aa" d="M15.77,22.03h-2.59c-.11,0-.21-.09-.21-.21v-4.38c0-.24.2-.44.44-.44h2.12c.24,0,.44.2.44.44v4.38c0,.11-.09.21-.21.21Z"/>
    </g>
  </g>
  <rect class="ac" x="19.48" y="14" width="3" height="40"/>
  <rect class="ac" x="81.54" y="14" width="3" height="40"/>
  <rect class="ae" x="16.48" y="14" width="3" height="6"/>
  <rect class="ae" x="16.48" y="48" width="3" height="6"/>
  <rect class="ae" x="84.54" y="14" width="3" height="6"/>
  <rect class="ae" x="84.54" y="48" width="3" height="6"/>
  <rect class="af" x="16.48" y="10" width="71.07" height="4"/>
</svg>