<?xml version="1.0" encoding="UTF-8"?>
<svg id="f" data-name="PROFILE_16-400_HangingUC" xmlns="http://www.w3.org/2000/svg" viewBox="0 0 104 64">
  <defs>
    <style>
      .v, .w, .x, .y, .z, .aa, .ab {
        fill: none;
      }

      .v, .w, .x, .z, .aa, .ab {
        stroke-linecap: round;
      }

      .v, .x, .z, .aa {
        stroke-linejoin: round;
      }

      .v, .x, .ab {
        stroke: #666;
      }

      .ac {
        fill: #8dc63f;
      }

      .w {
        stroke: gray;
      }

      .w, .aa {
        stroke-width: .5px;
      }

      .w, .ab {
        stroke-miterlimit: 10;
      }

      .x {
        stroke-width: 2px;
      }

      .ad {
        fill: #fff;
      }

      .z {
        stroke: #8dc63f;
      }

      .aa {
        stroke: #fff;
      }

      .ae {
        fill: #666;
      }

      .af {
        fill: #b3151b;
      }

      .ag {
        fill: #999;
      }

      .ah {
        fill: #ccc;
      }

      .ai {
        fill: #ec1c24;
      }
    </style>
  </defs>
  <rect class="ah" x="24.63" y="12" width="3" height="40"/>
  <rect class="ah" x="75.85" y="12" width="3" height="40"/>
  <g>
    <g>
      <g>
        <path class="x" d="M49.53,34.88c-1.36-1.36-1.36-3.56,0-4.92s3.6-1.4,4.92,0c1.38,1.47,1.44,3.94,0,4.92"/>
        <path class="z" d="M49.53,34.88c-1.36-1.36-1.36-3.56,0-4.92s3.6-1.4,4.92,0c1.38,1.47,1.44,3.94,0,4.92"/>
      </g>
      <g>
        <path class="ae" d="M55.55,27.9c-.1,0-.2-.03-.29-.09-.95-.67-2.08-1.03-3.27-1.03s-2.32.36-3.27,1.03c-.09.06-.19.09-.29.09-.08,0-.16-.02-.23-.06-.17-.09-.27-.26-.27-.44v-7.34s0-.08.01-.12l.89-3.56c.06-.22.26-.38.49-.38h5.33c.23,0,.43.16.49.38l.89,3.56s.01.08.01.12v7.34c0,.19-.1.36-.27.44-.07.04-.15.06-.23.06Z"/>
        <path class="ac" d="M55.55,20.06v7.34c-1-.71-2.23-1.12-3.56-1.12s-2.55.41-3.56,1.12v-7.34l.89-3.56h5.33l.89,3.56Z"/>
      </g>
    </g>
    <g>
      <path class="ae" d="M36.51,36.11c-.76,0-1.38-.62-1.38-1.38v-3.12c0-.52.42-.94.94-.94h8.44c.52,0,.94.42.94.94v3.12c0,.76-.62,1.38-1.38,1.38h-7.57Z"/>
      <path class="ad" d="M36.51,35.61h7.57c.49,0,.88-.4.88-.88v-3.12c0-.25-.2-.44-.44-.44h-8.44c-.25,0-.44.2-.44.44v3.12c0,.49.4.88.88.88Z"/>
    </g>
    <g>
      <circle class="af" cx="51.99" cy="32.5" r="1.5"/>
      <path class="ai" d="M51.99,31.5c.55,0,1,.45,1,1s-.45,1-1,1-1-.45-1-1,.45-1,1-1M51.99,30.5c-1.1,0-2,.9-2,2s.9,2,2,2,2-.9,2-2-.9-2-2-2h0Z"/>
    </g>
    <g>
      <path class="ab" d="M54.47,30.03c-.6-.6-1.4-.98-2.3-1.02-2.02-.1-3.67,1.67-3.67,3.69v2.31c0,.55.45,1,1,1h5.04c.56,0,1.01.46,1,1.02l-.04,2.48c0,2-1.67,3.6-3.69,3.5-1.89-.1-3.31-1.8-3.31-3.69v-.78"/>
      <path class="w" d="M54.47,30.03c-.6-.6-1.4-.98-2.3-1.02-2.02-.1-3.67,1.67-3.67,3.69v2.31c0,.55.45,1,1,1h5.04c.56,0,1.01.46,1,1.02l-.04,2.48c0,2-1.67,3.6-3.69,3.5-1.89-.1-3.31-1.8-3.31-3.69v-.78"/>
    </g>
    <g>
      <path class="v" d="M54.11,34.62c-.54.54-1.29.88-2.12.88-1.66,0-3-1.34-3-3h-14.25"/>
      <path class="aa" d="M54.11,34.62c-.54.54-1.29.88-2.12.88-1.66,0-3-1.34-3-3h-14.25"/>
    </g>
    <g>
      <g>
        <path class="ae" d="M59.46,34.29c-.51,0-.93-.42-.93-.93v-3.01c0-.75.61-1.35,1.35-1.35h7.3c.75,0,1.35.61,1.35,1.35v3.01c0,.51-.42.93-.93.93h-8.14Z"/>
        <path class="ad" d="M67.18,29.5h-7.3c-.47,0-.85.38-.85.85v3.01c0,.24.19.43.43.43h8.14c.24,0,.43-.19.43-.43v-3.01c0-.47-.38-.85-.85-.85Z"/>
      </g>
      <g>
        <path class="v" d="M49.87,30.38c.54-.54,1.29-.88,2.12-.88,1.66,0,3,1.34,3,3h13.75"/>
        <path class="aa" d="M49.87,30.38c.54-.54,1.29-.88,2.12-.88,1.66,0,3,1.34,3,3h13.75"/>
      </g>
    </g>
  </g>
  <rect class="y" width="104" height="64"/>
  <rect class="ag" x="21.63" y="12" width="60.22" height="4"/>
</svg>