<?xml version="1.0" encoding="UTF-8"?>
<svg id="h" data-name="PROFILE_16-400_Bracket" xmlns="http://www.w3.org/2000/svg" viewBox="0 0 104 64">
  <defs>
    <style>
      .v, .w, .x, .y, .z, .aa, .ab, .ac {
        fill: none;
      }

      .v, .w, .y, .z {
        stroke-linejoin: round;
      }

      .v, .w, .y, .z, .aa, .ac {
        stroke-linecap: round;
      }

      .v, .w, .aa {
        stroke: #666;
      }

      .ad {
        fill: #8dc63f;
      }

      .w {
        stroke-width: 2px;
      }

      .ae {
        fill: #fff;
      }

      .y {
        stroke: #8dc63f;
      }

      .z {
        stroke: #fff;
      }

      .z, .ac {
        stroke-width: .5px;
      }

      .af {
        fill: #666;
      }

      .aa, .ab, .ac {
        stroke-miterlimit: 10;
      }

      .ag {
        fill: #b3151b;
      }

      .ah {
        fill: #999;
      }

      .ai {
        fill: #ccc;
      }

      .aj {
        fill: #ec1c24;
      }

      .ab {
        stroke: #ec1c24;
        stroke-width: 4px;
      }

      .ac {
        stroke: #999;
      }
    </style>
  </defs>
  <line class="ab" x1="26.13" y1="32.59" x2="77.35" y2="32.59"/>
  <rect class="ai" x="24.63" y="8.31" width="3" height="46.82"/>
  <rect class="ai" x="75.85" y="8.31" width="3" height="46.82"/>
  <rect class="ah" x="21.63" y="51.13" width="60.22" height="4"/>
  <g>
    <g>
      <path class="af" d="M28.61,37.71c-.54,0-.98-.44-.98-.98v-3.93c0-.84.68-1.52,1.52-1.52h4.94c.84,0,1.52.68,1.52,1.52v3.93c0,.54-.44.98-.98.98h-6.02Z"/>
      <path class="ad" d="M34.63,37.21h-6.02c-.26,0-.48-.21-.48-.48v-3.93c0-.56.46-1.02,1.02-1.02h4.94c.56,0,1.02.46,1.02,1.02v3.93c0,.26-.21.48-.48.48Z"/>
    </g>
    <g>
      <path class="af" d="M29.15,45.2c-.84,0-1.52-.68-1.52-1.52v-5.49c0-.54.44-.98.98-.98h6.02c.54,0,.98.44.98.98v5.49c0,.84-.68,1.52-1.52,1.52h-4.94Z"/>
      <path class="ad" d="M28.61,37.71h6.02c.26,0,.48.21.48.48v5.49c0,.56-.46,1.02-1.02,1.02h-4.94c-.56,0-1.02-.46-1.02-1.02v-5.49c0-.26.21-.48.48-.48Z"/>
    </g>
  </g>
  <g>
    <g>
      <path class="af" d="M68.84,37.71c-.54,0-.98-.44-.98-.98v-3.93c0-.84.68-1.52,1.52-1.52h4.94c.84,0,1.52.68,1.52,1.52v3.93c0,.54-.44.98-.98.98h-6.02Z"/>
      <path class="ad" d="M74.87,37.21h-6.02c-.26,0-.48-.21-.48-.48v-3.93c0-.56.46-1.02,1.02-1.02h4.94c.56,0,1.02.46,1.02,1.02v3.93c0,.26-.21.48-.48.48Z"/>
    </g>
    <g>
      <path class="af" d="M69.39,45.2c-.84,0-1.52-.68-1.52-1.52v-5.49c0-.54.44-.98.98-.98h6.02c.54,0,.98.44.98.98v5.49c0,.84-.68,1.52-1.52,1.52h-4.94Z"/>
      <path class="ad" d="M68.84,37.71h6.02c.26,0,.48.21.48.48v5.49c0,.56-.46,1.02-1.02,1.02h-4.94c-.56,0-1.02-.46-1.02-1.02v-5.49c0-.26.21-.48.48-.48Z"/>
    </g>
  </g>
  <g>
    <g>
      <g>
        <rect class="af" x="48.01" y="27.64" width="7.98" height="6.43" rx="1.52" ry="1.52"/>
        <rect class="ad" x="48.51" y="28.14" width="6.98" height="5.43" rx="1.02" ry="1.02"/>
      </g>
      <g>
        <path class="w" d="M54.47,22.69c1.36,1.36,1.36,3.56,0,4.92s-3.6,1.4-4.92,0c-1.38-1.47-1.44-3.94,0-4.92"/>
        <path class="y" d="M54.47,22.69c1.36,1.36,1.36,3.56,0,4.92s-3.6,1.4-4.92,0c-1.38-1.47-1.44-3.94,0-4.92"/>
      </g>
    </g>
    <g>
      <g>
        <path class="af" d="M36.51,28.81c-.76,0-1.38-.62-1.38-1.38v-3.12c0-.52.42-.94.94-.94h8.44c.52,0,.94.42.94.94v3.12c0,.76-.62,1.38-1.38,1.38h-7.57Z"/>
        <path class="ae" d="M36.51,28.31h7.57c.49,0,.88-.4.88-.88v-3.12c0-.25-.2-.44-.44-.44h-8.44c-.25,0-.44.2-.44.44v3.12c0,.49.4.88.88.88Z"/>
      </g>
      <g>
        <circle class="ag" cx="51.99" cy="25.2" r="1.5"/>
        <path class="aj" d="M51.99,24.2c.55,0,1,.45,1,1s-.45,1-1,1-1-.45-1-1,.45-1,1-1M51.99,23.2c-1.1,0-2,.9-2,2s.9,2,2,2,2-.9,2-2-.9-2-2-2h0Z"/>
      </g>
      <g>
        <path class="aa" d="M49.54,27.68c.6.6,1.4.98,2.3,1.02,2.02.1,3.67-1.67,3.67-3.69v-2.31c0-.55-.45-1-1-1h-5.04c-.56,0-1.01-.46-1-1.02l.04-2.48c0-2,1.67-3.6,3.69-3.5,1.89.1,3.31,1.8,3.31,3.69v.78"/>
        <path class="ac" d="M49.54,27.68c.6.6,1.4.98,2.3,1.02,2.02.1,3.67-1.67,3.67-3.69v-2.31c0-.55-.45-1-1-1h-5.04c-.56,0-1.01-.46-1-1.02l.04-2.48c0-2,1.67-3.6,3.69-3.5,1.89.1,3.31,1.8,3.31,3.69v.78"/>
      </g>
      <g>
        <path class="v" d="M54.11,27.32c-.54.54-1.29.88-2.12.88-1.66,0-3-1.34-3-3h-14.25"/>
        <path class="z" d="M54.11,27.32c-.54.54-1.29.88-2.12.88-1.66,0-3-1.34-3-3h-14.25"/>
      </g>
      <g>
        <g>
          <path class="af" d="M59.46,26.99c-.51,0-.93-.42-.93-.93v-3.01c0-.75.61-1.35,1.35-1.35h7.3c.75,0,1.35.61,1.35,1.35v3.01c0,.51-.42.93-.93.93h-8.14Z"/>
          <path class="ae" d="M67.18,22.2h-7.3c-.47,0-.85.38-.85.85v3.01c0,.24.19.43.43.43h8.14c.24,0,.43-.19.43-.43v-3.01c0-.47-.38-.85-.85-.85Z"/>
        </g>
        <g>
          <path class="v" d="M49.87,23.08c.54-.54,1.29-.88,2.12-.88,1.66,0,3,1.34,3,3h13.75"/>
          <path class="z" d="M49.87,23.08c.54-.54,1.29-.88,2.12-.88,1.66,0,3,1.34,3,3h13.75"/>
        </g>
      </g>
    </g>
  </g>
  <rect class="x" width="104" height="64"/>
</svg>