<?xml version="1.0" encoding="UTF-8"?>
<svg id="e" data-name="PROFILE_16-400_Drilling" xmlns="http://www.w3.org/2000/svg" viewBox="0 0 104 64">
  <defs>
    <style>
      .v, .w, .x, .y, .z {
        fill: none;
      }

      .v, .x {
        stroke: #666;
      }

      .v, .x, .y, .z {
        stroke-miterlimit: 10;
      }

      .aa {
        fill: #fff;
      }

      .ab {
        fill: #666;
      }

      .x, .y {
        stroke-linecap: round;
      }

      .ac {
        fill: #999;
      }

      .y {
        stroke: gray;
      }

      .ad {
        fill: #ccc;
      }

      .z {
        stroke: #ec1c24;
        stroke-width: 4px;
      }
    </style>
  </defs>
  <line class="y" x1="41.22" y1="21.5" x2="41.22" y2="28.5"/>
  <line class="y" x1="62.48" y1="21.5" x2="62.48" y2="28.5"/>
  <line class="z" x1="21.74" y1="32" x2="81.74" y2="32"/>
  <rect class="ad" x="24.72" y="12" width="2.99" height="40"/>
  <rect class="ad" x="75.76" y="12" width="2.99" height="40"/>
  <rect class="ac" x="21.74" y="12" width="60.01" height="4"/>
  <g>
    <g>
      <rect class="ab" x="35.64" y="28.5" width="33.89" height="7" rx="1" ry="1"/>
      <rect class="aa" x="36.64" y="29.5" width="31.89" height="5"/>
    </g>
    <line class="v" x1="36.64" y1="32" x2="68.53" y2="32"/>
    <g>
      <line class="x" x1="39.85" y1="33.25" x2="37.12" y2="28.5"/>
      <line class="x" x1="42.84" y1="33.25" x2="40.11" y2="28.5"/>
      <line class="x" x1="45.83" y1="33.25" x2="43.1" y2="28.5"/>
      <line class="x" x1="48.82" y1="33.25" x2="46.09" y2="28.5"/>
      <line class="x" x1="51.82" y1="33.25" x2="49.08" y2="28.5"/>
      <line class="x" x1="54.81" y1="33.25" x2="52.07" y2="28.5"/>
      <line class="x" x1="57.8" y1="33.25" x2="55.06" y2="28.5"/>
      <line class="x" x1="60.79" y1="33.25" x2="58.05" y2="28.5"/>
      <line class="x" x1="63.78" y1="33.25" x2="61.04" y2="28.5"/>
      <line class="x" x1="66.77" y1="33.25" x2="64.03" y2="28.5"/>
    </g>
  </g>
  <rect class="w" width="104" height="64"/>
</svg>