<?xml version="1.0" encoding="UTF-8"?>
<svg id="o" data-name="PROFILE_24-600_HangingSH" xmlns="http://www.w3.org/2000/svg" viewBox="0 0 104 64">
  <defs>
    <style>
      .v, .w, .x, .y, .z, .aa {
        fill: none;
      }

      .v, .w, .y, .z, .aa {
        stroke-linecap: round;
      }

      .v, .y {
        stroke-linejoin: round;
      }

      .v, .z {
        stroke: #666;
      }

      .w {
        stroke: gray;
      }

      .w, .y, .aa {
        stroke-width: .5px;
      }

      .w, .z, .aa {
        stroke-miterlimit: 10;
      }

      .ab {
        fill: #fff;
      }

      .y {
        stroke: #fff;
      }

      .ac {
        fill: #666;
      }

      .ad {
        fill: #b3151b;
      }

      .ae {
        fill: #999;
      }

      .af {
        fill: #ccc;
      }

      .ag {
        fill: #ec1c24;
      }

      .aa {
        stroke: #999;
      }
    </style>
  </defs>
  <g>
    <g>
      <g>
        <path class="z" d="M37.22,32.02c0,2.2-2.03,3.93-4.32,3.41-1.26-.29-2.29-1.32-2.58-2.58-.52-2.29,1.2-4.32,3.41-4.32v-11.02c0-.55.45-1,1-1h1"/>
        <path class="w" d="M37.22,32.02c0,2.2-2.03,3.93-4.32,3.41-1.26-.29-2.29-1.32-2.58-2.58-.52-2.29,1.2-4.32,3.41-4.32v-11.02c0-.55.45-1,1-1h1"/>
      </g>
      <g>
        <path class="ac" d="M35.61,17.21c-.07.13-.2.21-.35.21-.16,0-.29-.08-.36-.21h.71Z"/>
        <rect class="ac" x="34.9" y="17" width=".71" height=".21"/>
      </g>
    </g>
    <g>
      <path class="ac" d="M18.23,35.63c-.76,0-1.38-.62-1.38-1.38v-3.12c0-.52.42-.94.94-.94h8.44c.52,0,.94.42.94.94v3.12c0,.76-.62,1.38-1.38,1.38h-7.57Z"/>
      <path class="ab" d="M18.23,35.13h7.57c.49,0,.88-.4.88-.88v-3.12c0-.25-.2-.44-.44-.44h-8.44c-.25,0-.44.2-.44.44v3.12c0,.49.4.88.88.88Z"/>
    </g>
    <g>
      <circle class="ad" cx="33.72" cy="32.02" r="1.5"/>
      <path class="ag" d="M33.72,31.02c.55,0,1,.45,1,1s-.45,1-1,1-1-.45-1-1,.45-1,1-1M33.72,30.02c-1.1,0-2,.9-2,2s.9,2,2,2,2-.9,2-2-.9-2-2-2h0Z"/>
    </g>
    <g>
      <path class="z" d="M36.17,29.54c-.6-.6-1.4-.98-2.3-1.02-2.02-.1-3.67,1.67-3.67,3.69v2.31c0,.55.45,1,1,1h5.04c.56,0,1.01.46,1,1.02l-.04,2.48c0,2-1.67,3.6-3.69,3.5-1.89-.1-3.31-1.8-3.31-3.69v-.78"/>
      <path class="aa" d="M36.17,29.54c-.6-.6-1.4-.98-2.3-1.02-2.02-.1-3.67,1.67-3.67,3.69v2.31c0,.55.45,1,1,1h5.04c.56,0,1.01.46,1,1.02l-.04,2.48c0,2-1.67,3.6-3.69,3.5-1.89-.1-3.31-1.8-3.31-3.69v-.78"/>
    </g>
    <g>
      <path class="v" d="M35.84,34.14c-.54.54-1.29.88-2.12.88-1.66,0-3-1.34-3-3h-14.25"/>
      <path class="y" d="M35.84,34.14c-.54.54-1.29.88-2.12.88-1.66,0-3-1.34-3-3h-14.25"/>
    </g>
    <g>
      <g>
        <path class="ac" d="M41.18,33.8c-.51,0-.93-.42-.93-.93v-3.01c0-.75.61-1.35,1.35-1.35h7.3c.75,0,1.35.61,1.35,1.35v3.01c0,.51-.42.93-.93.93h-8.14Z"/>
        <path class="ab" d="M48.9,29.02h-7.3c-.47,0-.85.38-.85.85v3.01c0,.24.19.43.43.43h8.14c.24,0,.43-.19.43-.43v-3.01c0-.47-.38-.85-.85-.85Z"/>
      </g>
      <g>
        <path class="v" d="M31.6,29.9c.54-.54,1.29-.88,2.12-.88,1.66,0,3,1.34,3,3h13.75"/>
        <path class="y" d="M31.6,29.9c.54-.54,1.29-.88,2.12-.88,1.66,0,3,1.34,3,3h13.75"/>
      </g>
    </g>
  </g>
  <g>
    <g>
      <g>
        <path class="z" d="M74.28,32.02c0,2.2-2.03,3.93-4.32,3.41-1.26-.29-2.29-1.32-2.58-2.58-.52-2.29,1.2-4.32,3.41-4.32v-11.02c0-.55.45-1,1-1h1"/>
        <path class="w" d="M74.28,32.02c0,2.2-2.03,3.93-4.32,3.41-1.26-.29-2.29-1.32-2.58-2.58-.52-2.29,1.2-4.32,3.41-4.32v-11.02c0-.55.45-1,1-1h1"/>
      </g>
      <g>
        <path class="ac" d="M72.68,17.21c-.07.13-.2.21-.35.21-.16,0-.29-.08-.36-.21h.71Z"/>
        <rect class="ac" x="71.97" y="17" width=".71" height=".21"/>
      </g>
    </g>
    <g>
      <path class="ac" d="M55.3,35.63c-.76,0-1.38-.62-1.38-1.38v-3.12c0-.52.42-.94.94-.94h8.44c.52,0,.94.42.94.94v3.12c0,.76-.62,1.38-1.38,1.38h-7.57Z"/>
      <path class="ab" d="M55.3,35.13h7.57c.49,0,.88-.4.88-.88v-3.12c0-.25-.2-.44-.44-.44h-8.44c-.25,0-.44.2-.44.44v3.12c0,.49.4.88.88.88Z"/>
    </g>
    <g>
      <circle class="ad" cx="70.78" cy="32.02" r="1.5"/>
      <path class="ag" d="M70.78,31.02c.55,0,1,.45,1,1s-.45,1-1,1-1-.45-1-1,.45-1,1-1M70.78,30.02c-1.1,0-2,.9-2,2s.9,2,2,2,2-.9,2-2-.9-2-2-2h0Z"/>
    </g>
    <g>
      <path class="z" d="M73.24,29.54c-.6-.6-1.4-.98-2.3-1.02-2.02-.1-3.67,1.67-3.67,3.69v2.31c0,.55.45,1,1,1h5.04c.56,0,1.01.46,1,1.02l-.04,2.48c0,2-1.67,3.6-3.69,3.5-1.89-.1-3.31-1.8-3.31-3.69v-.78"/>
      <path class="aa" d="M73.24,29.54c-.6-.6-1.4-.98-2.3-1.02-2.02-.1-3.67,1.67-3.67,3.69v2.31c0,.55.45,1,1,1h5.04c.56,0,1.01.46,1,1.02l-.04,2.48c0,2-1.67,3.6-3.69,3.5-1.89-.1-3.31-1.8-3.31-3.69v-.78"/>
    </g>
    <g>
      <path class="v" d="M72.9,34.14c-.54.54-1.29.88-2.12.88-1.66,0-3-1.34-3-3h-14.25"/>
      <path class="y" d="M72.9,34.14c-.54.54-1.29.88-2.12.88-1.66,0-3-1.34-3-3h-14.25"/>
    </g>
    <g>
      <g>
        <path class="ac" d="M78.24,33.8c-.51,0-.93-.42-.93-.93v-3.01c0-.75.61-1.35,1.35-1.35h7.3c.75,0,1.35.61,1.35,1.35v3.01c0,.51-.42.93-.93.93h-8.14Z"/>
        <path class="ab" d="M85.96,29.02h-7.3c-.47,0-.85.38-.85.85v3.01c0,.24.19.43.43.43h8.14c.24,0,.43-.19.43-.43v-3.01c0-.47-.38-.85-.85-.85Z"/>
      </g>
      <g>
        <path class="v" d="M68.66,29.9c.54-.54,1.29-.88,2.12-.88,1.66,0,3,1.34,3,3h13.75"/>
        <path class="y" d="M68.66,29.9c.54-.54,1.29-.88,2.12-.88,1.66,0,3,1.34,3,3h13.75"/>
      </g>
    </g>
  </g>
  <rect class="af" x="11.32" y="12" width="3" height="40"/>
  <rect class="af" x="89.68" y="12" width="3" height="40"/>
  <rect class="ae" x="8.32" y="12" width="87.36" height="4"/>
  <rect class="x" width="104" height="64"/>
</svg>