<?xml version="1.0" encoding="UTF-8"?>
<svg id="u" data-name="PROFILE_24-600_OpenWeb" xmlns="http://www.w3.org/2000/svg" viewBox="0 0 104 64">
  <defs>
    <style>
      .v, .w, .x, .y, .z {
        fill: none;
      }

      .v, .x {
        stroke: #666;
      }

      .v, .x, .y, .z {
        stroke-miterlimit: 10;
      }

      .aa {
        fill: #8dc63f;
      }

      .ab {
        fill: #fff;
      }

      .ac {
        fill: #dfe0e1;
      }

      .ad {
        fill: #666;
      }

      .ae {
        fill: #cccecf;
      }

      .x, .y {
        stroke-linecap: round;
      }

      .af {
        fill: #999;
      }

      .y {
        stroke: gray;
      }

      .z {
        stroke: #ec1c24;
        stroke-width: 4px;
      }
    </style>
  </defs>
  <line class="y" x1="80.89" y1="34.34" x2="80.89" y2="27.34"/>
  <line class="y" x1="59.56" y1="34.34" x2="59.56" y2="27.34"/>
  <line class="y" x1="44.45" y1="34.34" x2="44.45" y2="27.34"/>
  <line class="y" x1="23.12" y1="34.34" x2="23.12" y2="27.34"/>
  <line class="z" x1="100.04" y1="23.83" x2="3.96" y2="23.83"/>
  <rect class="ac" x="11.32" y="14" width="3" height="40"/>
  <rect class="ac" x="89.68" y="14" width="3" height="40"/>
  <g>
    <g>
      <rect class="ad" x="53.23" y="20.33" width="34" height="7" rx="1" ry="1"/>
      <rect class="ab" x="54.23" y="21.33" width="32" height="5"/>
    </g>
    <line class="v" x1="86.23" y1="23.83" x2="54.23" y2="23.83"/>
    <g>
      <line class="x" x1="83" y1="22.58" x2="85.75" y2="27.34"/>
      <line class="x" x1="80" y1="22.58" x2="82.75" y2="27.34"/>
      <line class="x" x1="77" y1="22.58" x2="79.74" y2="27.34"/>
      <line class="x" x1="74" y1="22.58" x2="76.74" y2="27.34"/>
      <line class="x" x1="71" y1="22.58" x2="73.74" y2="27.34"/>
      <line class="x" x1="68" y1="22.58" x2="70.74" y2="27.34"/>
      <line class="x" x1="65" y1="22.58" x2="67.74" y2="27.34"/>
      <line class="x" x1="62" y1="22.58" x2="64.74" y2="27.34"/>
      <line class="x" x1="58.99" y1="22.58" x2="61.74" y2="27.34"/>
      <line class="x" x1="55.99" y1="22.58" x2="58.74" y2="27.34"/>
    </g>
  </g>
  <g>
    <g>
      <rect class="ad" x="16.78" y="20.33" width="34" height="7" rx="1" ry="1"/>
      <rect class="ab" x="17.78" y="21.33" width="32" height="5"/>
    </g>
    <line class="v" x1="49.78" y1="23.83" x2="17.78" y2="23.83"/>
    <g>
      <line class="x" x1="46.56" y1="22.58" x2="49.3" y2="27.34"/>
      <line class="x" x1="43.56" y1="22.58" x2="46.3" y2="27.34"/>
      <line class="x" x1="40.56" y1="22.58" x2="43.3" y2="27.34"/>
      <line class="x" x1="37.56" y1="22.58" x2="40.3" y2="27.34"/>
      <line class="x" x1="34.56" y1="22.58" x2="37.3" y2="27.34"/>
      <line class="x" x1="31.56" y1="22.58" x2="34.3" y2="27.34"/>
      <line class="x" x1="28.55" y1="22.58" x2="31.3" y2="27.34"/>
      <line class="x" x1="25.55" y1="22.58" x2="28.3" y2="27.34"/>
      <line class="x" x1="22.55" y1="22.58" x2="25.3" y2="27.34"/>
      <line class="x" x1="19.55" y1="22.58" x2="22.29" y2="27.34"/>
    </g>
  </g>
  <rect class="w" x=".06" width="103.87" height="64"/>
  <g>
    <g>
      <path class="ad" d="M5.26,25.37c-.52,0-.94-.42-.94-.94v-1.69c0-.39.32-.71.71-.71h2.59c.39,0,.71.32.71.71v1.69c0,.52-.42.94-.94.94h-2.12Z"/>
      <path class="aa" d="M5.02,22.53h2.59c.11,0,.21.09.21.21v1.69c0,.24-.2.44-.44.44h-2.12c-.24,0-.44-.2-.44-.44v-1.69c0-.11.09-.21.21-.21Z"/>
    </g>
    <g>
      <path class="ad" d="M5.02,22.53c-.39,0-.71-.32-.71-.71v-4.38c0-.52.42-.94.94-.94h2.12c.52,0,.94.42.94.94v4.38c0,.39-.32.71-.71.71h-2.59Z"/>
      <path class="aa" d="M7.61,22.03h-2.59c-.11,0-.21-.09-.21-.21v-4.38c0-.24.2-.44.44-.44h2.12c.24,0,.44.2.44.44v4.38c0,.11-.09.21-.21.21Z"/>
    </g>
  </g>
  <g>
    <g>
      <path class="ad" d="M96.63,25.37c-.52,0-.94-.42-.94-.94v-1.69c0-.39.32-.71.71-.71h2.59c.39,0,.71.32.71.71v1.69c0,.52-.42.94-.94.94h-2.12Z"/>
      <path class="aa" d="M96.4,22.53h2.59c.11,0,.21.09.21.21v1.69c0,.24-.2.44-.44.44h-2.12c-.24,0-.44-.2-.44-.44v-1.69c0-.11.09-.21.21-.21Z"/>
    </g>
    <g>
      <path class="ad" d="M96.4,22.53c-.39,0-.71-.32-.71-.71v-4.38c0-.52.42-.94.94-.94h2.12c.52,0,.94.42.94.94v4.38c0,.39-.32.71-.71.71h-2.59Z"/>
      <path class="aa" d="M98.98,22.03h-2.59c-.11,0-.21-.09-.21-.21v-4.38c0-.24.2-.44.44-.44h2.12c.24,0,.44.2.44.44v4.38c0,.11-.09.21-.21.21Z"/>
    </g>
  </g>
  <rect class="ae" x="92.68" y="14" width="3" height="6"/>
  <rect class="ae" x="8.32" y="14" width="3" height="6"/>
  <rect class="ae" x="8.32" y="48" width="3" height="6"/>
  <rect class="ae" x="92.68" y="48" width="3" height="6"/>
  <rect class="af" x="8.32" y="10" width="87.36" height="4"/>
</svg>