<?xml version="1.0" encoding="UTF-8"?>
<svg id="i" data-name="PROFILE_19-488_Drilling" xmlns="http://www.w3.org/2000/svg" viewBox="0 0 104 64">
  <defs>
    <style>
      .v, .w, .x, .y, .z {
        fill: none;
      }

      .v, .x {
        stroke: #666;
      }

      .v, .x, .y, .z {
        stroke-miterlimit: 10;
      }

      .aa {
        fill: #fff;
      }

      .ab {
        fill: #666;
      }

      .x, .y {
        stroke-linecap: round;
      }

      .ac {
        fill: #999;
      }

      .y {
        stroke: gray;
      }

      .ad {
        fill: #ccc;
      }

      .z {
        stroke: #ec1c24;
        stroke-width: 4px;
      }
    </style>
  </defs>
  <line class="y" x1="41.36" y1="21.5" x2="41.36" y2="28.5"/>
  <line class="y" x1="62.69" y1="21.5" x2="62.69" y2="28.5"/>
  <line class="z" x1="16.48" y1="32" x2="87.54" y2="32"/>
  <rect class="ad" x="19.48" y="12" width="3" height="40"/>
  <rect class="ad" x="81.54" y="12" width="3" height="40"/>
  <rect class="ac" x="16.48" y="12" width="71.07" height="4"/>
  <g>
    <g>
      <rect class="ab" x="35" y="28.5" width="34" height="7" rx="1" ry="1"/>
      <rect class="aa" x="36" y="29.5" width="32" height="5"/>
    </g>
    <line class="v" x1="36" y1="32" x2="68" y2="32"/>
    <g>
      <line class="x" x1="39.22" y1="33.25" x2="36.48" y2="28.5"/>
      <line class="x" x1="42.22" y1="33.25" x2="39.48" y2="28.5"/>
      <line class="x" x1="45.23" y1="33.25" x2="42.48" y2="28.5"/>
      <line class="x" x1="48.23" y1="33.25" x2="45.48" y2="28.5"/>
      <line class="x" x1="51.23" y1="33.25" x2="48.48" y2="28.5"/>
      <line class="x" x1="54.23" y1="33.25" x2="51.49" y2="28.5"/>
      <line class="x" x1="57.23" y1="33.25" x2="54.49" y2="28.5"/>
      <line class="x" x1="60.23" y1="33.25" x2="57.49" y2="28.5"/>
      <line class="x" x1="63.23" y1="33.25" x2="60.49" y2="28.5"/>
      <line class="x" x1="66.23" y1="33.25" x2="63.49" y2="28.5"/>
    </g>
  </g>
  <rect class="w" width="104" height="64"/>
</svg>