<?xml version="1.0" encoding="UTF-8"?>
<svg id="q" data-name="PROFILE_OpenWeb" xmlns="http://www.w3.org/2000/svg" xmlns:xlink="http://www.w3.org/1999/xlink" viewBox="0 0 104 64">
  <defs>
    <style>
      .x, .y, .z, .aa, .ab, .ac, .ad {
        fill: none;
      }

      .x, .y, .z, .ab, .ac, .ad {
        stroke-linecap: round;
      }

      .x, .z, .ab, .ac {
        stroke-linejoin: round;
      }

      .x, .z, .ad {
        stroke: #666;
      }

      .ae {
        fill: #8dc63f;
      }

      .y {
        stroke: gray;
      }

      .y, .ac {
        stroke-width: .5px;
      }

      .y, .ad {
        stroke-miterlimit: 10;
      }

      .z {
        stroke-width: 2px;
      }

      .af {
        fill: #fff;
      }

      .ab {
        stroke: #8dc63f;
      }

      .ag {
        fill: #dfe0e1;
      }

      .ac {
        stroke: #fff;
      }

      .ah {
        fill: #666;
      }

      .ai {
        clip-path: url(#r);
      }

      .aj {
        fill: #cccecf;
      }

      .ak {
        clip-path: url(#s);
      }

      .al {
        fill: #b5b7b9;
      }

      .am {
        fill: #b3151b;
      }

      .an {
        fill: #ec1c24;
      }
    </style>
    <clipPath id="r">
      <polygon class="ag" points="53.98 9.28 17.65 50.72 13.47 50.72 13.47 46.01 45.67 9.28 53.98 9.28"/>
    </clipPath>
    <clipPath id="s">
      <polygon class="ag" points="50.02 9.28 86.35 50.72 90.53 50.72 90.53 46.01 58.33 9.28 50.02 9.28"/>
    </clipPath>
  </defs>
  <g>
    <polygon class="ag" points="53.98 9.28 17.65 50.72 13.47 50.72 13.47 46.01 45.67 9.28 53.98 9.28"/>
    <g class="ai">
      <polygon class="al" points="39.26 13.28 52 13.28 52 16.52 37.19 16.52 39.26 13.28"/>
    </g>
  </g>
  <g>
    <polygon class="ag" points="50.02 9.28 86.35 50.72 90.53 50.72 90.53 46.01 58.33 9.28 50.02 9.28"/>
    <g class="ak">
      <polygon class="al" points="64.74 13.28 52 13.28 52 16.52 66.81 16.52 64.74 13.28"/>
    </g>
  </g>
  <rect class="aj" x="50" y="-27.26" width="4" height="77.07" transform="translate(63.28 -40.72) rotate(90)"/>
  <rect class="aj" x="50" y="14.19" width="4" height="77.07" transform="translate(104.72 .72) rotate(90)"/>
  <rect class="aa" width="104" height="64"/>
  <g>
    <g>
      <g>
        <path class="z" d="M49.8,28.16c-1.36-1.36-1.36-3.56,0-4.92,1.36-1.36,3.6-1.4,4.92,0,1.38,1.47,1.44,3.94,0,4.92"/>
        <path class="ab" d="M49.8,28.16c-1.36-1.36-1.36-3.56,0-4.92,1.36-1.36,3.6-1.4,4.92,0,1.38,1.47,1.44,3.94,0,4.92"/>
      </g>
      <g>
        <path class="ah" d="M55.81,21.17c-.1,0-.2-.03-.29-.09-.95-.67-2.08-1.03-3.27-1.03s-2.32.36-3.27,1.03c-.09.06-.19.09-.29.09-.08,0-.16-.02-.23-.06-.17-.09-.27-.26-.27-.44v-7.34s0-.08.01-.12l.89-3.56c.06-.22.26-.38.49-.38h5.33c.23,0,.43.16.49.38l.89,3.56s.01.08.01.12v7.34c0,.19-.1.36-.27.44-.07.04-.15.06-.23.06Z"/>
        <path class="ae" d="M55.81,13.33v7.34c-1-.71-2.23-1.12-3.56-1.12s-2.55.41-3.56,1.12v-7.34l.89-3.56h5.33l.89,3.56Z"/>
      </g>
    </g>
    <g>
      <path class="ah" d="M36.77,29.39c-.76,0-1.38-.62-1.38-1.38v-3.12c0-.52.42-.94.94-.94h8.44c.52,0,.94.42.94.94v3.12c0,.76-.62,1.38-1.38,1.38h-7.57Z"/>
      <path class="af" d="M36.77,28.89h7.57c.49,0,.88-.4.88-.88v-3.12c0-.25-.2-.44-.44-.44h-8.44c-.25,0-.44.2-.44.44v3.12c0,.49.4.88.88.88Z"/>
    </g>
    <g>
      <circle class="am" cx="52.25" cy="25.78" r="1.5"/>
      <path class="an" d="M52.25,24.78c.55,0,1,.45,1,1s-.45,1-1,1-1-.45-1-1,.45-1,1-1M52.25,23.78c-1.1,0-2,.9-2,2s.9,2,2,2,2-.9,2-2-.9-2-2-2h0Z"/>
    </g>
    <g>
      <path class="ad" d="M54.73,23.3c-.6-.6-1.4-.98-2.3-1.02-2.02-.1-3.67,1.67-3.67,3.69v2.31c0,.55.45,1,1,1h5.04c.56,0,1.01.46,1,1.02l-.04,2.48c0,2-1.67,3.6-3.69,3.5-1.89-.1-3.31-1.8-3.31-3.69v-.78"/>
      <path class="y" d="M54.73,23.3c-.6-.6-1.4-.98-2.3-1.02-2.02-.1-3.67,1.67-3.67,3.69v2.31c0,.55.45,1,1,1h5.04c.56,0,1.01.46,1,1.02l-.04,2.48c0,2-1.67,3.6-3.69,3.5-1.89-.1-3.31-1.8-3.31-3.69v-.78"/>
    </g>
    <g>
      <path class="x" d="M54.38,27.9c-.54.54-1.29.88-2.12.88-1.66,0-3-1.34-3-3h-14.25"/>
      <path class="ac" d="M54.38,27.9c-.54.54-1.29.88-2.12.88-1.66,0-3-1.34-3-3h-14.25"/>
    </g>
    <g>
      <g>
        <path class="ah" d="M59.72,27.56c-.51,0-.93-.42-.93-.93v-3.01c0-.75.61-1.35,1.35-1.35h7.3c.75,0,1.35.61,1.35,1.35v3.01c0,.51-.42.93-.93.93h-8.14Z"/>
        <path class="af" d="M67.44,22.78h-7.3c-.47,0-.85.38-.85.85v3.01c0,.24.19.43.43.43h8.14c.24,0,.43-.19.43-.43v-3.01c0-.47-.38-.85-.85-.85Z"/>
      </g>
      <g>
        <path class="x" d="M50.13,23.66c.54-.54,1.29-.88,2.12-.88,1.66,0,3,1.34,3,3h13.75"/>
        <path class="ac" d="M50.13,23.66c.54-.54,1.29-.88,2.12-.88,1.66,0,3,1.34,3,3h13.75"/>
      </g>
    </g>
  </g>
  <circle class="ah" cx="52" cy="11.28" r=".86"/>
</svg>